G04 #@! TF.GenerationSoftware,KiCad,Pcbnew,5.1.2-f72e74a~84~ubuntu18.04.1*
G04 #@! TF.CreationDate,2019-06-17T19:39:07+02:00*
G04 #@! TF.ProjectId,msg-relay,6d73672d-7265-46c6-9179-2e6b69636164,rev?*
G04 #@! TF.SameCoordinates,Original*
G04 #@! TF.FileFunction,Legend,Top*
G04 #@! TF.FilePolarity,Positive*
%FSLAX46Y46*%
G04 Gerber Fmt 4.6, Leading zero omitted, Abs format (unit mm)*
G04 Created by KiCad (PCBNEW 5.1.2-f72e74a~84~ubuntu18.04.1) date 2019-06-17 19:39:07*
%MOMM*%
%LPD*%
G04 APERTURE LIST*
%ADD10C,0.150000*%
%ADD11C,0.120000*%
G04 APERTURE END LIST*
D10*
X143083333Y-138202380D02*
X143083333Y-137202380D01*
X143416666Y-137916666D01*
X143750000Y-137202380D01*
X143750000Y-138202380D01*
X144178571Y-138154761D02*
X144321428Y-138202380D01*
X144559523Y-138202380D01*
X144654761Y-138154761D01*
X144702380Y-138107142D01*
X144750000Y-138011904D01*
X144750000Y-137916666D01*
X144702380Y-137821428D01*
X144654761Y-137773809D01*
X144559523Y-137726190D01*
X144369047Y-137678571D01*
X144273809Y-137630952D01*
X144226190Y-137583333D01*
X144178571Y-137488095D01*
X144178571Y-137392857D01*
X144226190Y-137297619D01*
X144273809Y-137250000D01*
X144369047Y-137202380D01*
X144607142Y-137202380D01*
X144750000Y-137250000D01*
X145702380Y-137250000D02*
X145607142Y-137202380D01*
X145464285Y-137202380D01*
X145321428Y-137250000D01*
X145226190Y-137345238D01*
X145178571Y-137440476D01*
X145130952Y-137630952D01*
X145130952Y-137773809D01*
X145178571Y-137964285D01*
X145226190Y-138059523D01*
X145321428Y-138154761D01*
X145464285Y-138202380D01*
X145559523Y-138202380D01*
X145702380Y-138154761D01*
X145750000Y-138107142D01*
X145750000Y-137773809D01*
X145559523Y-137773809D01*
X146178571Y-137821428D02*
X146940476Y-137821428D01*
X147988095Y-138202380D02*
X147654761Y-137726190D01*
X147416666Y-138202380D02*
X147416666Y-137202380D01*
X147797619Y-137202380D01*
X147892857Y-137250000D01*
X147940476Y-137297619D01*
X147988095Y-137392857D01*
X147988095Y-137535714D01*
X147940476Y-137630952D01*
X147892857Y-137678571D01*
X147797619Y-137726190D01*
X147416666Y-137726190D01*
X148797619Y-138154761D02*
X148702380Y-138202380D01*
X148511904Y-138202380D01*
X148416666Y-138154761D01*
X148369047Y-138059523D01*
X148369047Y-137678571D01*
X148416666Y-137583333D01*
X148511904Y-137535714D01*
X148702380Y-137535714D01*
X148797619Y-137583333D01*
X148845238Y-137678571D01*
X148845238Y-137773809D01*
X148369047Y-137869047D01*
X149416666Y-138202380D02*
X149321428Y-138154761D01*
X149273809Y-138059523D01*
X149273809Y-137202380D01*
X150226190Y-138202380D02*
X150226190Y-137678571D01*
X150178571Y-137583333D01*
X150083333Y-137535714D01*
X149892857Y-137535714D01*
X149797619Y-137583333D01*
X150226190Y-138154761D02*
X150130952Y-138202380D01*
X149892857Y-138202380D01*
X149797619Y-138154761D01*
X149750000Y-138059523D01*
X149750000Y-137964285D01*
X149797619Y-137869047D01*
X149892857Y-137821428D01*
X150130952Y-137821428D01*
X150226190Y-137773809D01*
X150607142Y-137535714D02*
X150845238Y-138202380D01*
X151083333Y-137535714D02*
X150845238Y-138202380D01*
X150750000Y-138440476D01*
X150702380Y-138488095D01*
X150607142Y-138535714D01*
X152130952Y-137535714D02*
X152369047Y-138202380D01*
X152607142Y-137535714D01*
X153178571Y-137202380D02*
X153273809Y-137202380D01*
X153369047Y-137250000D01*
X153416666Y-137297619D01*
X153464285Y-137392857D01*
X153511904Y-137583333D01*
X153511904Y-137821428D01*
X153464285Y-138011904D01*
X153416666Y-138107142D01*
X153369047Y-138154761D01*
X153273809Y-138202380D01*
X153178571Y-138202380D01*
X153083333Y-138154761D01*
X153035714Y-138107142D01*
X152988095Y-138011904D01*
X152940476Y-137821428D01*
X152940476Y-137583333D01*
X152988095Y-137392857D01*
X153035714Y-137297619D01*
X153083333Y-137250000D01*
X153178571Y-137202380D01*
X154464285Y-138202380D02*
X153892857Y-138202380D01*
X154178571Y-138202380D02*
X154178571Y-137202380D01*
X154083333Y-137345238D01*
X153988095Y-137440476D01*
X153892857Y-137488095D01*
D11*
X106760000Y-122450279D02*
X106760000Y-122124721D01*
X105740000Y-122450279D02*
X105740000Y-122124721D01*
X96240000Y-127049721D02*
X96240000Y-127375279D01*
X97260000Y-127049721D02*
X97260000Y-127375279D01*
X82510000Y-122375279D02*
X82510000Y-122049721D01*
X81490000Y-122375279D02*
X81490000Y-122049721D01*
X91240000Y-127337221D02*
X91240000Y-127662779D01*
X92260000Y-127337221D02*
X92260000Y-127662779D01*
X117950279Y-121490000D02*
X117624721Y-121490000D01*
X117950279Y-122510000D02*
X117624721Y-122510000D01*
X119950279Y-110490000D02*
X119624721Y-110490000D01*
X119950279Y-111510000D02*
X119624721Y-111510000D01*
X117950279Y-102490000D02*
X117624721Y-102490000D01*
X117950279Y-103510000D02*
X117624721Y-103510000D01*
X119950279Y-91490000D02*
X119624721Y-91490000D01*
X119950279Y-92510000D02*
X119624721Y-92510000D01*
X117950279Y-83490000D02*
X117624721Y-83490000D01*
X117950279Y-84510000D02*
X117624721Y-84510000D01*
X119950279Y-72490000D02*
X119624721Y-72490000D01*
X119950279Y-73510000D02*
X119624721Y-73510000D01*
X118375279Y-64490000D02*
X118049721Y-64490000D01*
X118375279Y-65510000D02*
X118049721Y-65510000D01*
X119950279Y-53490000D02*
X119624721Y-53490000D01*
X119950279Y-54510000D02*
X119624721Y-54510000D01*
X123760000Y-124580000D02*
X122300000Y-124580000D01*
X123760000Y-121420000D02*
X121600000Y-121420000D01*
X123760000Y-121420000D02*
X123760000Y-122350000D01*
X123760000Y-124580000D02*
X123760000Y-123650000D01*
X123760000Y-105580000D02*
X122300000Y-105580000D01*
X123760000Y-102420000D02*
X121600000Y-102420000D01*
X123760000Y-102420000D02*
X123760000Y-103350000D01*
X123760000Y-105580000D02*
X123760000Y-104650000D01*
X123760000Y-86580000D02*
X122300000Y-86580000D01*
X123760000Y-83420000D02*
X121600000Y-83420000D01*
X123760000Y-83420000D02*
X123760000Y-84350000D01*
X123760000Y-86580000D02*
X123760000Y-85650000D01*
X123760000Y-67580000D02*
X122300000Y-67580000D01*
X123760000Y-64420000D02*
X121600000Y-64420000D01*
X123760000Y-64420000D02*
X123760000Y-65350000D01*
X123760000Y-67580000D02*
X123760000Y-66650000D01*
X136850000Y-118850000D02*
X132850000Y-118850000D01*
X136850000Y-115250000D02*
X136850000Y-118850000D01*
X132850000Y-115250000D02*
X136850000Y-115250000D01*
X132850000Y-118850000D02*
X132850000Y-115250000D01*
X136850000Y-118850000D02*
X132850000Y-115250000D01*
X134850000Y-118850000D02*
X134850000Y-123050000D01*
X134850000Y-111050000D02*
X134850000Y-115250000D01*
X131450000Y-117050000D02*
X131450000Y-120650000D01*
X138250000Y-117050000D02*
X138250000Y-120650000D01*
X138250000Y-120650000D02*
X131450000Y-120650000D01*
X139750000Y-117050000D02*
X144350000Y-114550000D01*
X138250000Y-117050000D02*
X139750000Y-117050000D01*
X134850000Y-111050000D02*
X132350000Y-111050000D01*
X131450000Y-117050000D02*
X130650000Y-117050000D01*
X132350000Y-123050000D02*
X134850000Y-123050000D01*
X142950000Y-112800000D02*
X142950000Y-115300000D01*
X142950000Y-121200000D02*
X142950000Y-118750000D01*
X147200000Y-124800000D02*
X127400000Y-124800000D01*
X147200000Y-109200000D02*
X147200000Y-124800000D01*
X127400000Y-109200000D02*
X147200000Y-109200000D01*
X127400000Y-109200000D02*
X127400000Y-115800000D01*
X127400000Y-118200000D02*
X127400000Y-124800000D01*
X136850000Y-99850000D02*
X132850000Y-99850000D01*
X136850000Y-96250000D02*
X136850000Y-99850000D01*
X132850000Y-96250000D02*
X136850000Y-96250000D01*
X132850000Y-99850000D02*
X132850000Y-96250000D01*
X136850000Y-99850000D02*
X132850000Y-96250000D01*
X134850000Y-99850000D02*
X134850000Y-104050000D01*
X134850000Y-92050000D02*
X134850000Y-96250000D01*
X131450000Y-98050000D02*
X131450000Y-101650000D01*
X138250000Y-98050000D02*
X138250000Y-101650000D01*
X138250000Y-101650000D02*
X131450000Y-101650000D01*
X139750000Y-98050000D02*
X144350000Y-95550000D01*
X138250000Y-98050000D02*
X139750000Y-98050000D01*
X134850000Y-92050000D02*
X132350000Y-92050000D01*
X131450000Y-98050000D02*
X130650000Y-98050000D01*
X132350000Y-104050000D02*
X134850000Y-104050000D01*
X142950000Y-93800000D02*
X142950000Y-96300000D01*
X142950000Y-102200000D02*
X142950000Y-99750000D01*
X147200000Y-105800000D02*
X127400000Y-105800000D01*
X147200000Y-90200000D02*
X147200000Y-105800000D01*
X127400000Y-90200000D02*
X147200000Y-90200000D01*
X127400000Y-90200000D02*
X127400000Y-96800000D01*
X127400000Y-99200000D02*
X127400000Y-105800000D01*
X136850000Y-80800000D02*
X132850000Y-80800000D01*
X136850000Y-77200000D02*
X136850000Y-80800000D01*
X132850000Y-77200000D02*
X136850000Y-77200000D01*
X132850000Y-80800000D02*
X132850000Y-77200000D01*
X136850000Y-80800000D02*
X132850000Y-77200000D01*
X134850000Y-80800000D02*
X134850000Y-85000000D01*
X134850000Y-73000000D02*
X134850000Y-77200000D01*
X131450000Y-79000000D02*
X131450000Y-82600000D01*
X138250000Y-79000000D02*
X138250000Y-82600000D01*
X138250000Y-82600000D02*
X131450000Y-82600000D01*
X139750000Y-79000000D02*
X144350000Y-76500000D01*
X138250000Y-79000000D02*
X139750000Y-79000000D01*
X134850000Y-73000000D02*
X132350000Y-73000000D01*
X131450000Y-79000000D02*
X130650000Y-79000000D01*
X132350000Y-85000000D02*
X134850000Y-85000000D01*
X142950000Y-74750000D02*
X142950000Y-77250000D01*
X142950000Y-83150000D02*
X142950000Y-80700000D01*
X147200000Y-86750000D02*
X127400000Y-86750000D01*
X147200000Y-71150000D02*
X147200000Y-86750000D01*
X127400000Y-71150000D02*
X147200000Y-71150000D01*
X127400000Y-71150000D02*
X127400000Y-77750000D01*
X127400000Y-80150000D02*
X127400000Y-86750000D01*
X136850000Y-61850000D02*
X132850000Y-61850000D01*
X136850000Y-58250000D02*
X136850000Y-61850000D01*
X132850000Y-58250000D02*
X136850000Y-58250000D01*
X132850000Y-61850000D02*
X132850000Y-58250000D01*
X136850000Y-61850000D02*
X132850000Y-58250000D01*
X134850000Y-61850000D02*
X134850000Y-66050000D01*
X134850000Y-54050000D02*
X134850000Y-58250000D01*
X131450000Y-60050000D02*
X131450000Y-63650000D01*
X138250000Y-60050000D02*
X138250000Y-63650000D01*
X138250000Y-63650000D02*
X131450000Y-63650000D01*
X139750000Y-60050000D02*
X144350000Y-57550000D01*
X138250000Y-60050000D02*
X139750000Y-60050000D01*
X134850000Y-54050000D02*
X132350000Y-54050000D01*
X131450000Y-60050000D02*
X130650000Y-60050000D01*
X132350000Y-66050000D02*
X134850000Y-66050000D01*
X142950000Y-55800000D02*
X142950000Y-58300000D01*
X142950000Y-64200000D02*
X142950000Y-61750000D01*
X147200000Y-67800000D02*
X127400000Y-67800000D01*
X147200000Y-52200000D02*
X147200000Y-67800000D01*
X127400000Y-52200000D02*
X147200000Y-52200000D01*
X127400000Y-52200000D02*
X127400000Y-58800000D01*
X127400000Y-61200000D02*
X127400000Y-67800000D01*
X156850000Y-107960000D02*
X156850000Y-109960000D01*
X155600000Y-107960000D02*
X156850000Y-107960000D01*
X149850000Y-122660000D02*
X149850000Y-121910000D01*
X154150000Y-122660000D02*
X149850000Y-122660000D01*
X154150000Y-121910000D02*
X154150000Y-122660000D01*
X154500000Y-121910000D02*
X154150000Y-121910000D01*
X154500000Y-122410000D02*
X154500000Y-121910000D01*
X155500000Y-122660000D02*
X154500000Y-122410000D01*
X155500000Y-119660000D02*
X155500000Y-122660000D01*
X154500000Y-119910000D02*
X155500000Y-119660000D01*
X154500000Y-120410000D02*
X154500000Y-119910000D01*
X154150000Y-120410000D02*
X154500000Y-120410000D01*
X154150000Y-119660000D02*
X154150000Y-120410000D01*
X149850000Y-119660000D02*
X154150000Y-119660000D01*
X149850000Y-120410000D02*
X149850000Y-119660000D01*
X149850000Y-117580000D02*
X149850000Y-116830000D01*
X154150000Y-117580000D02*
X149850000Y-117580000D01*
X154150000Y-116830000D02*
X154150000Y-117580000D01*
X154500000Y-116830000D02*
X154150000Y-116830000D01*
X154500000Y-117330000D02*
X154500000Y-116830000D01*
X155500000Y-117580000D02*
X154500000Y-117330000D01*
X155500000Y-114580000D02*
X155500000Y-117580000D01*
X154500000Y-114830000D02*
X155500000Y-114580000D01*
X154500000Y-115330000D02*
X154500000Y-114830000D01*
X154150000Y-115330000D02*
X154500000Y-115330000D01*
X154150000Y-114580000D02*
X154150000Y-115330000D01*
X149850000Y-114580000D02*
X154150000Y-114580000D01*
X149850000Y-115330000D02*
X149850000Y-114580000D01*
X149850000Y-112500000D02*
X149850000Y-111750000D01*
X154150000Y-112500000D02*
X149850000Y-112500000D01*
X154150000Y-111750000D02*
X154150000Y-112500000D01*
X154500000Y-111750000D02*
X154150000Y-111750000D01*
X154500000Y-112250000D02*
X154500000Y-111750000D01*
X155500000Y-112500000D02*
X154500000Y-112250000D01*
X155500000Y-109500000D02*
X155500000Y-112500000D01*
X154500000Y-109750000D02*
X155500000Y-109500000D01*
X154500000Y-110250000D02*
X154500000Y-109750000D01*
X154150000Y-110250000D02*
X154500000Y-110250000D01*
X154150000Y-109500000D02*
X154150000Y-110250000D01*
X149850000Y-109500000D02*
X154150000Y-109500000D01*
X149850000Y-110250000D02*
X149850000Y-109500000D01*
X156460000Y-123810000D02*
X156460000Y-108350000D01*
X148990000Y-123810000D02*
X156460000Y-123810000D01*
X148990000Y-108350000D02*
X148990000Y-123810000D01*
X156460000Y-108350000D02*
X148990000Y-108350000D01*
X149850155Y-121909647D02*
G75*
G03X149850000Y-120410000I-1700155J749647D01*
G01*
X149850155Y-116829647D02*
G75*
G03X149850000Y-115330000I-1700155J749647D01*
G01*
X149850155Y-111749647D02*
G75*
G03X149850000Y-110250000I-1700155J749647D01*
G01*
X156850000Y-88960000D02*
X156850000Y-90960000D01*
X155600000Y-88960000D02*
X156850000Y-88960000D01*
X149850000Y-103660000D02*
X149850000Y-102910000D01*
X154150000Y-103660000D02*
X149850000Y-103660000D01*
X154150000Y-102910000D02*
X154150000Y-103660000D01*
X154500000Y-102910000D02*
X154150000Y-102910000D01*
X154500000Y-103410000D02*
X154500000Y-102910000D01*
X155500000Y-103660000D02*
X154500000Y-103410000D01*
X155500000Y-100660000D02*
X155500000Y-103660000D01*
X154500000Y-100910000D02*
X155500000Y-100660000D01*
X154500000Y-101410000D02*
X154500000Y-100910000D01*
X154150000Y-101410000D02*
X154500000Y-101410000D01*
X154150000Y-100660000D02*
X154150000Y-101410000D01*
X149850000Y-100660000D02*
X154150000Y-100660000D01*
X149850000Y-101410000D02*
X149850000Y-100660000D01*
X149850000Y-98580000D02*
X149850000Y-97830000D01*
X154150000Y-98580000D02*
X149850000Y-98580000D01*
X154150000Y-97830000D02*
X154150000Y-98580000D01*
X154500000Y-97830000D02*
X154150000Y-97830000D01*
X154500000Y-98330000D02*
X154500000Y-97830000D01*
X155500000Y-98580000D02*
X154500000Y-98330000D01*
X155500000Y-95580000D02*
X155500000Y-98580000D01*
X154500000Y-95830000D02*
X155500000Y-95580000D01*
X154500000Y-96330000D02*
X154500000Y-95830000D01*
X154150000Y-96330000D02*
X154500000Y-96330000D01*
X154150000Y-95580000D02*
X154150000Y-96330000D01*
X149850000Y-95580000D02*
X154150000Y-95580000D01*
X149850000Y-96330000D02*
X149850000Y-95580000D01*
X149850000Y-93500000D02*
X149850000Y-92750000D01*
X154150000Y-93500000D02*
X149850000Y-93500000D01*
X154150000Y-92750000D02*
X154150000Y-93500000D01*
X154500000Y-92750000D02*
X154150000Y-92750000D01*
X154500000Y-93250000D02*
X154500000Y-92750000D01*
X155500000Y-93500000D02*
X154500000Y-93250000D01*
X155500000Y-90500000D02*
X155500000Y-93500000D01*
X154500000Y-90750000D02*
X155500000Y-90500000D01*
X154500000Y-91250000D02*
X154500000Y-90750000D01*
X154150000Y-91250000D02*
X154500000Y-91250000D01*
X154150000Y-90500000D02*
X154150000Y-91250000D01*
X149850000Y-90500000D02*
X154150000Y-90500000D01*
X149850000Y-91250000D02*
X149850000Y-90500000D01*
X156460000Y-104810000D02*
X156460000Y-89350000D01*
X148990000Y-104810000D02*
X156460000Y-104810000D01*
X148990000Y-89350000D02*
X148990000Y-104810000D01*
X156460000Y-89350000D02*
X148990000Y-89350000D01*
X149850155Y-102909647D02*
G75*
G03X149850000Y-101410000I-1700155J749647D01*
G01*
X149850155Y-97829647D02*
G75*
G03X149850000Y-96330000I-1700155J749647D01*
G01*
X149850155Y-92749647D02*
G75*
G03X149850000Y-91250000I-1700155J749647D01*
G01*
X156850000Y-69960000D02*
X156850000Y-71960000D01*
X155600000Y-69960000D02*
X156850000Y-69960000D01*
X149850000Y-84660000D02*
X149850000Y-83910000D01*
X154150000Y-84660000D02*
X149850000Y-84660000D01*
X154150000Y-83910000D02*
X154150000Y-84660000D01*
X154500000Y-83910000D02*
X154150000Y-83910000D01*
X154500000Y-84410000D02*
X154500000Y-83910000D01*
X155500000Y-84660000D02*
X154500000Y-84410000D01*
X155500000Y-81660000D02*
X155500000Y-84660000D01*
X154500000Y-81910000D02*
X155500000Y-81660000D01*
X154500000Y-82410000D02*
X154500000Y-81910000D01*
X154150000Y-82410000D02*
X154500000Y-82410000D01*
X154150000Y-81660000D02*
X154150000Y-82410000D01*
X149850000Y-81660000D02*
X154150000Y-81660000D01*
X149850000Y-82410000D02*
X149850000Y-81660000D01*
X149850000Y-79580000D02*
X149850000Y-78830000D01*
X154150000Y-79580000D02*
X149850000Y-79580000D01*
X154150000Y-78830000D02*
X154150000Y-79580000D01*
X154500000Y-78830000D02*
X154150000Y-78830000D01*
X154500000Y-79330000D02*
X154500000Y-78830000D01*
X155500000Y-79580000D02*
X154500000Y-79330000D01*
X155500000Y-76580000D02*
X155500000Y-79580000D01*
X154500000Y-76830000D02*
X155500000Y-76580000D01*
X154500000Y-77330000D02*
X154500000Y-76830000D01*
X154150000Y-77330000D02*
X154500000Y-77330000D01*
X154150000Y-76580000D02*
X154150000Y-77330000D01*
X149850000Y-76580000D02*
X154150000Y-76580000D01*
X149850000Y-77330000D02*
X149850000Y-76580000D01*
X149850000Y-74500000D02*
X149850000Y-73750000D01*
X154150000Y-74500000D02*
X149850000Y-74500000D01*
X154150000Y-73750000D02*
X154150000Y-74500000D01*
X154500000Y-73750000D02*
X154150000Y-73750000D01*
X154500000Y-74250000D02*
X154500000Y-73750000D01*
X155500000Y-74500000D02*
X154500000Y-74250000D01*
X155500000Y-71500000D02*
X155500000Y-74500000D01*
X154500000Y-71750000D02*
X155500000Y-71500000D01*
X154500000Y-72250000D02*
X154500000Y-71750000D01*
X154150000Y-72250000D02*
X154500000Y-72250000D01*
X154150000Y-71500000D02*
X154150000Y-72250000D01*
X149850000Y-71500000D02*
X154150000Y-71500000D01*
X149850000Y-72250000D02*
X149850000Y-71500000D01*
X156460000Y-85810000D02*
X156460000Y-70350000D01*
X148990000Y-85810000D02*
X156460000Y-85810000D01*
X148990000Y-70350000D02*
X148990000Y-85810000D01*
X156460000Y-70350000D02*
X148990000Y-70350000D01*
X149850155Y-83909647D02*
G75*
G03X149850000Y-82410000I-1700155J749647D01*
G01*
X149850155Y-78829647D02*
G75*
G03X149850000Y-77330000I-1700155J749647D01*
G01*
X149850155Y-73749647D02*
G75*
G03X149850000Y-72250000I-1700155J749647D01*
G01*
X156850000Y-50960000D02*
X156850000Y-52960000D01*
X155600000Y-50960000D02*
X156850000Y-50960000D01*
X149850000Y-65660000D02*
X149850000Y-64910000D01*
X154150000Y-65660000D02*
X149850000Y-65660000D01*
X154150000Y-64910000D02*
X154150000Y-65660000D01*
X154500000Y-64910000D02*
X154150000Y-64910000D01*
X154500000Y-65410000D02*
X154500000Y-64910000D01*
X155500000Y-65660000D02*
X154500000Y-65410000D01*
X155500000Y-62660000D02*
X155500000Y-65660000D01*
X154500000Y-62910000D02*
X155500000Y-62660000D01*
X154500000Y-63410000D02*
X154500000Y-62910000D01*
X154150000Y-63410000D02*
X154500000Y-63410000D01*
X154150000Y-62660000D02*
X154150000Y-63410000D01*
X149850000Y-62660000D02*
X154150000Y-62660000D01*
X149850000Y-63410000D02*
X149850000Y-62660000D01*
X149850000Y-60580000D02*
X149850000Y-59830000D01*
X154150000Y-60580000D02*
X149850000Y-60580000D01*
X154150000Y-59830000D02*
X154150000Y-60580000D01*
X154500000Y-59830000D02*
X154150000Y-59830000D01*
X154500000Y-60330000D02*
X154500000Y-59830000D01*
X155500000Y-60580000D02*
X154500000Y-60330000D01*
X155500000Y-57580000D02*
X155500000Y-60580000D01*
X154500000Y-57830000D02*
X155500000Y-57580000D01*
X154500000Y-58330000D02*
X154500000Y-57830000D01*
X154150000Y-58330000D02*
X154500000Y-58330000D01*
X154150000Y-57580000D02*
X154150000Y-58330000D01*
X149850000Y-57580000D02*
X154150000Y-57580000D01*
X149850000Y-58330000D02*
X149850000Y-57580000D01*
X149850000Y-55500000D02*
X149850000Y-54750000D01*
X154150000Y-55500000D02*
X149850000Y-55500000D01*
X154150000Y-54750000D02*
X154150000Y-55500000D01*
X154500000Y-54750000D02*
X154150000Y-54750000D01*
X154500000Y-55250000D02*
X154500000Y-54750000D01*
X155500000Y-55500000D02*
X154500000Y-55250000D01*
X155500000Y-52500000D02*
X155500000Y-55500000D01*
X154500000Y-52750000D02*
X155500000Y-52500000D01*
X154500000Y-53250000D02*
X154500000Y-52750000D01*
X154150000Y-53250000D02*
X154500000Y-53250000D01*
X154150000Y-52500000D02*
X154150000Y-53250000D01*
X149850000Y-52500000D02*
X154150000Y-52500000D01*
X149850000Y-53250000D02*
X149850000Y-52500000D01*
X156460000Y-66810000D02*
X156460000Y-51350000D01*
X148990000Y-66810000D02*
X156460000Y-66810000D01*
X148990000Y-51350000D02*
X148990000Y-66810000D01*
X156460000Y-51350000D02*
X148990000Y-51350000D01*
X149850155Y-64909647D02*
G75*
G03X149850000Y-63410000I-1700155J749647D01*
G01*
X149850155Y-59829647D02*
G75*
G03X149850000Y-58330000I-1700155J749647D01*
G01*
X149850155Y-54749647D02*
G75*
G03X149850000Y-53250000I-1700155J749647D01*
G01*
X112760000Y-55000000D02*
X112760000Y-56330000D01*
X112760000Y-56330000D02*
X112000000Y-56330000D01*
X111365000Y-56330000D02*
X107495000Y-56330000D01*
X107495000Y-55307530D02*
X107495000Y-56330000D01*
X107495000Y-53670000D02*
X107495000Y-54692470D01*
X111365000Y-53670000D02*
X107495000Y-53670000D01*
X111365000Y-55760000D02*
X111365000Y-56330000D01*
X111365000Y-53670000D02*
X111365000Y-54240000D01*
X99790000Y-138850000D02*
X97790000Y-138850000D01*
X99790000Y-137600000D02*
X99790000Y-138850000D01*
X90170000Y-131850000D02*
X90920000Y-131850000D01*
X90170000Y-136150000D02*
X90170000Y-131850000D01*
X90920000Y-136150000D02*
X90170000Y-136150000D01*
X90920000Y-136500000D02*
X90920000Y-136150000D01*
X90420000Y-136500000D02*
X90920000Y-136500000D01*
X90170000Y-137500000D02*
X90420000Y-136500000D01*
X93170000Y-137500000D02*
X90170000Y-137500000D01*
X92920000Y-136500000D02*
X93170000Y-137500000D01*
X92420000Y-136500000D02*
X92920000Y-136500000D01*
X92420000Y-136150000D02*
X92420000Y-136500000D01*
X93170000Y-136150000D02*
X92420000Y-136150000D01*
X93170000Y-131850000D02*
X93170000Y-136150000D01*
X92420000Y-131850000D02*
X93170000Y-131850000D01*
X95250000Y-131850000D02*
X96000000Y-131850000D01*
X95250000Y-136150000D02*
X95250000Y-131850000D01*
X96000000Y-136150000D02*
X95250000Y-136150000D01*
X96000000Y-136500000D02*
X96000000Y-136150000D01*
X95500000Y-136500000D02*
X96000000Y-136500000D01*
X95250000Y-137500000D02*
X95500000Y-136500000D01*
X98250000Y-137500000D02*
X95250000Y-137500000D01*
X98000000Y-136500000D02*
X98250000Y-137500000D01*
X97500000Y-136500000D02*
X98000000Y-136500000D01*
X97500000Y-136150000D02*
X97500000Y-136500000D01*
X98250000Y-136150000D02*
X97500000Y-136150000D01*
X98250000Y-131850000D02*
X98250000Y-136150000D01*
X97500000Y-131850000D02*
X98250000Y-131850000D01*
X89020000Y-138460000D02*
X99400000Y-138460000D01*
X89020000Y-130990000D02*
X89020000Y-138460000D01*
X99400000Y-130990000D02*
X89020000Y-130990000D01*
X99400000Y-138460000D02*
X99400000Y-130990000D01*
X90920353Y-131850155D02*
G75*
G03X92420000Y-131850000I749647J1700155D01*
G01*
X96000353Y-131850155D02*
G75*
G03X97500000Y-131850000I749647J1700155D01*
G01*
X80780000Y-50650000D02*
X82780000Y-50650000D01*
X80780000Y-51900000D02*
X80780000Y-50650000D01*
X90400000Y-57650000D02*
X89650000Y-57650000D01*
X90400000Y-53350000D02*
X90400000Y-57650000D01*
X89650000Y-53350000D02*
X90400000Y-53350000D01*
X89650000Y-53000000D02*
X89650000Y-53350000D01*
X90150000Y-53000000D02*
X89650000Y-53000000D01*
X90400000Y-52000000D02*
X90150000Y-53000000D01*
X87400000Y-52000000D02*
X90400000Y-52000000D01*
X87650000Y-53000000D02*
X87400000Y-52000000D01*
X88150000Y-53000000D02*
X87650000Y-53000000D01*
X88150000Y-53350000D02*
X88150000Y-53000000D01*
X87400000Y-53350000D02*
X88150000Y-53350000D01*
X87400000Y-57650000D02*
X87400000Y-53350000D01*
X88150000Y-57650000D02*
X87400000Y-57650000D01*
X85320000Y-57650000D02*
X84570000Y-57650000D01*
X85320000Y-53350000D02*
X85320000Y-57650000D01*
X84570000Y-53350000D02*
X85320000Y-53350000D01*
X84570000Y-53000000D02*
X84570000Y-53350000D01*
X85070000Y-53000000D02*
X84570000Y-53000000D01*
X85320000Y-52000000D02*
X85070000Y-53000000D01*
X82320000Y-52000000D02*
X85320000Y-52000000D01*
X82570000Y-53000000D02*
X82320000Y-52000000D01*
X83070000Y-53000000D02*
X82570000Y-53000000D01*
X83070000Y-53350000D02*
X83070000Y-53000000D01*
X82320000Y-53350000D02*
X83070000Y-53350000D01*
X82320000Y-57650000D02*
X82320000Y-53350000D01*
X83070000Y-57650000D02*
X82320000Y-57650000D01*
X91550000Y-51040000D02*
X81170000Y-51040000D01*
X91550000Y-58510000D02*
X91550000Y-51040000D01*
X81170000Y-58510000D02*
X91550000Y-58510000D01*
X81170000Y-51040000D02*
X81170000Y-58510000D01*
X89649647Y-57649845D02*
G75*
G03X88150000Y-57650000I-749647J-1700155D01*
G01*
X84569647Y-57649845D02*
G75*
G03X83070000Y-57650000I-749647J-1700155D01*
G01*
X95630000Y-120710000D02*
X97870000Y-120710000D01*
X95630000Y-120470000D02*
X97870000Y-120470000D01*
X95630000Y-120590000D02*
X97870000Y-120590000D01*
X96750000Y-116420000D02*
X96750000Y-117070000D01*
X96750000Y-121960000D02*
X96750000Y-121310000D01*
X95630000Y-117070000D02*
X95630000Y-121310000D01*
X97870000Y-117070000D02*
X95630000Y-117070000D01*
X97870000Y-121310000D02*
X97870000Y-117070000D01*
X95630000Y-121310000D02*
X97870000Y-121310000D01*
X102370000Y-117790000D02*
X100130000Y-117790000D01*
X102370000Y-118030000D02*
X100130000Y-118030000D01*
X102370000Y-117910000D02*
X100130000Y-117910000D01*
X101250000Y-122080000D02*
X101250000Y-121430000D01*
X101250000Y-116540000D02*
X101250000Y-117190000D01*
X102370000Y-121430000D02*
X102370000Y-117190000D01*
X100130000Y-121430000D02*
X102370000Y-121430000D01*
X100130000Y-117190000D02*
X100130000Y-121430000D01*
X102370000Y-117190000D02*
X100130000Y-117190000D01*
X90630000Y-120710000D02*
X92870000Y-120710000D01*
X90630000Y-120470000D02*
X92870000Y-120470000D01*
X90630000Y-120590000D02*
X92870000Y-120590000D01*
X91750000Y-116420000D02*
X91750000Y-117070000D01*
X91750000Y-121960000D02*
X91750000Y-121310000D01*
X90630000Y-117070000D02*
X90630000Y-121310000D01*
X92870000Y-117070000D02*
X90630000Y-117070000D01*
X92870000Y-121310000D02*
X92870000Y-117070000D01*
X90630000Y-121310000D02*
X92870000Y-121310000D01*
X88370000Y-117670000D02*
X86130000Y-117670000D01*
X88370000Y-117910000D02*
X86130000Y-117910000D01*
X88370000Y-117790000D02*
X86130000Y-117790000D01*
X87250000Y-121960000D02*
X87250000Y-121310000D01*
X87250000Y-116420000D02*
X87250000Y-117070000D01*
X88370000Y-121310000D02*
X88370000Y-117070000D01*
X86130000Y-121310000D02*
X88370000Y-121310000D01*
X86130000Y-117070000D02*
X86130000Y-121310000D01*
X88370000Y-117070000D02*
X86130000Y-117070000D01*
X125120000Y-113290000D02*
X122880000Y-113290000D01*
X125120000Y-113530000D02*
X122880000Y-113530000D01*
X125120000Y-113410000D02*
X122880000Y-113410000D01*
X124000000Y-117580000D02*
X124000000Y-116930000D01*
X124000000Y-112040000D02*
X124000000Y-112690000D01*
X125120000Y-116930000D02*
X125120000Y-112690000D01*
X122880000Y-116930000D02*
X125120000Y-116930000D01*
X122880000Y-112690000D02*
X122880000Y-116930000D01*
X125120000Y-112690000D02*
X122880000Y-112690000D01*
X119735000Y-117272500D02*
X119735000Y-114987500D01*
X118265000Y-117272500D02*
X119735000Y-117272500D01*
X118265000Y-114987500D02*
X118265000Y-117272500D01*
X125120000Y-94290000D02*
X122880000Y-94290000D01*
X125120000Y-94530000D02*
X122880000Y-94530000D01*
X125120000Y-94410000D02*
X122880000Y-94410000D01*
X124000000Y-98580000D02*
X124000000Y-97930000D01*
X124000000Y-93040000D02*
X124000000Y-93690000D01*
X125120000Y-97930000D02*
X125120000Y-93690000D01*
X122880000Y-97930000D02*
X125120000Y-97930000D01*
X122880000Y-93690000D02*
X122880000Y-97930000D01*
X125120000Y-93690000D02*
X122880000Y-93690000D01*
X119735000Y-98272500D02*
X119735000Y-95987500D01*
X118265000Y-98272500D02*
X119735000Y-98272500D01*
X118265000Y-95987500D02*
X118265000Y-98272500D01*
X125120000Y-75290000D02*
X122880000Y-75290000D01*
X125120000Y-75530000D02*
X122880000Y-75530000D01*
X125120000Y-75410000D02*
X122880000Y-75410000D01*
X124000000Y-79580000D02*
X124000000Y-78930000D01*
X124000000Y-74040000D02*
X124000000Y-74690000D01*
X125120000Y-78930000D02*
X125120000Y-74690000D01*
X122880000Y-78930000D02*
X125120000Y-78930000D01*
X122880000Y-74690000D02*
X122880000Y-78930000D01*
X125120000Y-74690000D02*
X122880000Y-74690000D01*
X119735000Y-78697500D02*
X119735000Y-76412500D01*
X118265000Y-78697500D02*
X119735000Y-78697500D01*
X118265000Y-76412500D02*
X118265000Y-78697500D01*
X125120000Y-56290000D02*
X122880000Y-56290000D01*
X125120000Y-56530000D02*
X122880000Y-56530000D01*
X125120000Y-56410000D02*
X122880000Y-56410000D01*
X124000000Y-60580000D02*
X124000000Y-59930000D01*
X124000000Y-55040000D02*
X124000000Y-55690000D01*
X125120000Y-59930000D02*
X125120000Y-55690000D01*
X122880000Y-59930000D02*
X125120000Y-59930000D01*
X122880000Y-55690000D02*
X122880000Y-59930000D01*
X125120000Y-55690000D02*
X122880000Y-55690000D01*
X119735000Y-59772500D02*
X119735000Y-57487500D01*
X118265000Y-59772500D02*
X119735000Y-59772500D01*
X118265000Y-57487500D02*
X118265000Y-59772500D01*
X103400000Y-64360000D02*
X85360000Y-64360000D01*
X103400000Y-107800000D02*
X103400000Y-64360000D01*
X85360000Y-107800000D02*
X103400000Y-107800000D01*
X88030000Y-105130000D02*
X85360000Y-105130000D01*
X88030000Y-69570000D02*
X88030000Y-105130000D01*
X88030000Y-69570000D02*
X85360000Y-69570000D01*
X100730000Y-105130000D02*
X103400000Y-105130000D01*
X100730000Y-67030000D02*
X100730000Y-105130000D01*
X100730000Y-67030000D02*
X103400000Y-67030000D01*
X85360000Y-64360000D02*
X85360000Y-67030000D01*
X85360000Y-69570000D02*
X85360000Y-107800000D01*
X88030000Y-67030000D02*
X85360000Y-67030000D01*
X88030000Y-69570000D02*
X88030000Y-67030000D01*
D10*
X105272380Y-122930357D02*
X104796190Y-123263690D01*
X105272380Y-123501785D02*
X104272380Y-123501785D01*
X104272380Y-123120833D01*
X104320000Y-123025595D01*
X104367619Y-122977976D01*
X104462857Y-122930357D01*
X104605714Y-122930357D01*
X104700952Y-122977976D01*
X104748571Y-123025595D01*
X104796190Y-123120833D01*
X104796190Y-123501785D01*
X105272380Y-121977976D02*
X105272380Y-122549404D01*
X105272380Y-122263690D02*
X104272380Y-122263690D01*
X104415238Y-122358928D01*
X104510476Y-122454166D01*
X104558095Y-122549404D01*
X104367619Y-121597023D02*
X104320000Y-121549404D01*
X104272380Y-121454166D01*
X104272380Y-121216071D01*
X104320000Y-121120833D01*
X104367619Y-121073214D01*
X104462857Y-121025595D01*
X104558095Y-121025595D01*
X104700952Y-121073214D01*
X105272380Y-121644642D01*
X105272380Y-121025595D01*
X98632380Y-127855357D02*
X98156190Y-128188690D01*
X98632380Y-128426785D02*
X97632380Y-128426785D01*
X97632380Y-128045833D01*
X97680000Y-127950595D01*
X97727619Y-127902976D01*
X97822857Y-127855357D01*
X97965714Y-127855357D01*
X98060952Y-127902976D01*
X98108571Y-127950595D01*
X98156190Y-128045833D01*
X98156190Y-128426785D01*
X98632380Y-126902976D02*
X98632380Y-127474404D01*
X98632380Y-127188690D02*
X97632380Y-127188690D01*
X97775238Y-127283928D01*
X97870476Y-127379166D01*
X97918095Y-127474404D01*
X98632380Y-125950595D02*
X98632380Y-126522023D01*
X98632380Y-126236309D02*
X97632380Y-126236309D01*
X97775238Y-126331547D01*
X97870476Y-126426785D01*
X97918095Y-126522023D01*
X81022380Y-122855357D02*
X80546190Y-123188690D01*
X81022380Y-123426785D02*
X80022380Y-123426785D01*
X80022380Y-123045833D01*
X80070000Y-122950595D01*
X80117619Y-122902976D01*
X80212857Y-122855357D01*
X80355714Y-122855357D01*
X80450952Y-122902976D01*
X80498571Y-122950595D01*
X80546190Y-123045833D01*
X80546190Y-123426785D01*
X81022380Y-121902976D02*
X81022380Y-122474404D01*
X81022380Y-122188690D02*
X80022380Y-122188690D01*
X80165238Y-122283928D01*
X80260476Y-122379166D01*
X80308095Y-122474404D01*
X80022380Y-121283928D02*
X80022380Y-121188690D01*
X80070000Y-121093452D01*
X80117619Y-121045833D01*
X80212857Y-120998214D01*
X80403333Y-120950595D01*
X80641428Y-120950595D01*
X80831904Y-120998214D01*
X80927142Y-121045833D01*
X80974761Y-121093452D01*
X81022380Y-121188690D01*
X81022380Y-121283928D01*
X80974761Y-121379166D01*
X80927142Y-121426785D01*
X80831904Y-121474404D01*
X80641428Y-121522023D01*
X80403333Y-121522023D01*
X80212857Y-121474404D01*
X80117619Y-121426785D01*
X80070000Y-121379166D01*
X80022380Y-121283928D01*
X93632380Y-127666666D02*
X93156190Y-128000000D01*
X93632380Y-128238095D02*
X92632380Y-128238095D01*
X92632380Y-127857142D01*
X92680000Y-127761904D01*
X92727619Y-127714285D01*
X92822857Y-127666666D01*
X92965714Y-127666666D01*
X93060952Y-127714285D01*
X93108571Y-127761904D01*
X93156190Y-127857142D01*
X93156190Y-128238095D01*
X93632380Y-127190476D02*
X93632380Y-127000000D01*
X93584761Y-126904761D01*
X93537142Y-126857142D01*
X93394285Y-126761904D01*
X93203809Y-126714285D01*
X92822857Y-126714285D01*
X92727619Y-126761904D01*
X92680000Y-126809523D01*
X92632380Y-126904761D01*
X92632380Y-127095238D01*
X92680000Y-127190476D01*
X92727619Y-127238095D01*
X92822857Y-127285714D01*
X93060952Y-127285714D01*
X93156190Y-127238095D01*
X93203809Y-127190476D01*
X93251428Y-127095238D01*
X93251428Y-126904761D01*
X93203809Y-126809523D01*
X93156190Y-126761904D01*
X93060952Y-126714285D01*
X117620833Y-123882380D02*
X117287500Y-123406190D01*
X117049404Y-123882380D02*
X117049404Y-122882380D01*
X117430357Y-122882380D01*
X117525595Y-122930000D01*
X117573214Y-122977619D01*
X117620833Y-123072857D01*
X117620833Y-123215714D01*
X117573214Y-123310952D01*
X117525595Y-123358571D01*
X117430357Y-123406190D01*
X117049404Y-123406190D01*
X118192261Y-123310952D02*
X118097023Y-123263333D01*
X118049404Y-123215714D01*
X118001785Y-123120476D01*
X118001785Y-123072857D01*
X118049404Y-122977619D01*
X118097023Y-122930000D01*
X118192261Y-122882380D01*
X118382738Y-122882380D01*
X118477976Y-122930000D01*
X118525595Y-122977619D01*
X118573214Y-123072857D01*
X118573214Y-123120476D01*
X118525595Y-123215714D01*
X118477976Y-123263333D01*
X118382738Y-123310952D01*
X118192261Y-123310952D01*
X118097023Y-123358571D01*
X118049404Y-123406190D01*
X118001785Y-123501428D01*
X118001785Y-123691904D01*
X118049404Y-123787142D01*
X118097023Y-123834761D01*
X118192261Y-123882380D01*
X118382738Y-123882380D01*
X118477976Y-123834761D01*
X118525595Y-123787142D01*
X118573214Y-123691904D01*
X118573214Y-123501428D01*
X118525595Y-123406190D01*
X118477976Y-123358571D01*
X118382738Y-123310952D01*
X119620833Y-112882380D02*
X119287500Y-112406190D01*
X119049404Y-112882380D02*
X119049404Y-111882380D01*
X119430357Y-111882380D01*
X119525595Y-111930000D01*
X119573214Y-111977619D01*
X119620833Y-112072857D01*
X119620833Y-112215714D01*
X119573214Y-112310952D01*
X119525595Y-112358571D01*
X119430357Y-112406190D01*
X119049404Y-112406190D01*
X119954166Y-111882380D02*
X120620833Y-111882380D01*
X120192261Y-112882380D01*
X117620833Y-104882380D02*
X117287500Y-104406190D01*
X117049404Y-104882380D02*
X117049404Y-103882380D01*
X117430357Y-103882380D01*
X117525595Y-103930000D01*
X117573214Y-103977619D01*
X117620833Y-104072857D01*
X117620833Y-104215714D01*
X117573214Y-104310952D01*
X117525595Y-104358571D01*
X117430357Y-104406190D01*
X117049404Y-104406190D01*
X118477976Y-103882380D02*
X118287500Y-103882380D01*
X118192261Y-103930000D01*
X118144642Y-103977619D01*
X118049404Y-104120476D01*
X118001785Y-104310952D01*
X118001785Y-104691904D01*
X118049404Y-104787142D01*
X118097023Y-104834761D01*
X118192261Y-104882380D01*
X118382738Y-104882380D01*
X118477976Y-104834761D01*
X118525595Y-104787142D01*
X118573214Y-104691904D01*
X118573214Y-104453809D01*
X118525595Y-104358571D01*
X118477976Y-104310952D01*
X118382738Y-104263333D01*
X118192261Y-104263333D01*
X118097023Y-104310952D01*
X118049404Y-104358571D01*
X118001785Y-104453809D01*
X119620833Y-93882380D02*
X119287500Y-93406190D01*
X119049404Y-93882380D02*
X119049404Y-92882380D01*
X119430357Y-92882380D01*
X119525595Y-92930000D01*
X119573214Y-92977619D01*
X119620833Y-93072857D01*
X119620833Y-93215714D01*
X119573214Y-93310952D01*
X119525595Y-93358571D01*
X119430357Y-93406190D01*
X119049404Y-93406190D01*
X120525595Y-92882380D02*
X120049404Y-92882380D01*
X120001785Y-93358571D01*
X120049404Y-93310952D01*
X120144642Y-93263333D01*
X120382738Y-93263333D01*
X120477976Y-93310952D01*
X120525595Y-93358571D01*
X120573214Y-93453809D01*
X120573214Y-93691904D01*
X120525595Y-93787142D01*
X120477976Y-93834761D01*
X120382738Y-93882380D01*
X120144642Y-93882380D01*
X120049404Y-93834761D01*
X120001785Y-93787142D01*
X117620833Y-85882380D02*
X117287500Y-85406190D01*
X117049404Y-85882380D02*
X117049404Y-84882380D01*
X117430357Y-84882380D01*
X117525595Y-84930000D01*
X117573214Y-84977619D01*
X117620833Y-85072857D01*
X117620833Y-85215714D01*
X117573214Y-85310952D01*
X117525595Y-85358571D01*
X117430357Y-85406190D01*
X117049404Y-85406190D01*
X118477976Y-85215714D02*
X118477976Y-85882380D01*
X118239880Y-84834761D02*
X118001785Y-85549047D01*
X118620833Y-85549047D01*
X119620833Y-74882380D02*
X119287500Y-74406190D01*
X119049404Y-74882380D02*
X119049404Y-73882380D01*
X119430357Y-73882380D01*
X119525595Y-73930000D01*
X119573214Y-73977619D01*
X119620833Y-74072857D01*
X119620833Y-74215714D01*
X119573214Y-74310952D01*
X119525595Y-74358571D01*
X119430357Y-74406190D01*
X119049404Y-74406190D01*
X119954166Y-73882380D02*
X120573214Y-73882380D01*
X120239880Y-74263333D01*
X120382738Y-74263333D01*
X120477976Y-74310952D01*
X120525595Y-74358571D01*
X120573214Y-74453809D01*
X120573214Y-74691904D01*
X120525595Y-74787142D01*
X120477976Y-74834761D01*
X120382738Y-74882380D01*
X120097023Y-74882380D01*
X120001785Y-74834761D01*
X119954166Y-74787142D01*
X118045833Y-66882380D02*
X117712500Y-66406190D01*
X117474404Y-66882380D02*
X117474404Y-65882380D01*
X117855357Y-65882380D01*
X117950595Y-65930000D01*
X117998214Y-65977619D01*
X118045833Y-66072857D01*
X118045833Y-66215714D01*
X117998214Y-66310952D01*
X117950595Y-66358571D01*
X117855357Y-66406190D01*
X117474404Y-66406190D01*
X118426785Y-65977619D02*
X118474404Y-65930000D01*
X118569642Y-65882380D01*
X118807738Y-65882380D01*
X118902976Y-65930000D01*
X118950595Y-65977619D01*
X118998214Y-66072857D01*
X118998214Y-66168095D01*
X118950595Y-66310952D01*
X118379166Y-66882380D01*
X118998214Y-66882380D01*
X119620833Y-55882380D02*
X119287500Y-55406190D01*
X119049404Y-55882380D02*
X119049404Y-54882380D01*
X119430357Y-54882380D01*
X119525595Y-54930000D01*
X119573214Y-54977619D01*
X119620833Y-55072857D01*
X119620833Y-55215714D01*
X119573214Y-55310952D01*
X119525595Y-55358571D01*
X119430357Y-55406190D01*
X119049404Y-55406190D01*
X120573214Y-55882380D02*
X120001785Y-55882380D01*
X120287500Y-55882380D02*
X120287500Y-54882380D01*
X120192261Y-55025238D01*
X120097023Y-55120476D01*
X120001785Y-55168095D01*
X122904761Y-121047619D02*
X122809523Y-121000000D01*
X122714285Y-120904761D01*
X122571428Y-120761904D01*
X122476190Y-120714285D01*
X122380952Y-120714285D01*
X122428571Y-120952380D02*
X122333333Y-120904761D01*
X122238095Y-120809523D01*
X122190476Y-120619047D01*
X122190476Y-120285714D01*
X122238095Y-120095238D01*
X122333333Y-120000000D01*
X122428571Y-119952380D01*
X122619047Y-119952380D01*
X122714285Y-120000000D01*
X122809523Y-120095238D01*
X122857142Y-120285714D01*
X122857142Y-120619047D01*
X122809523Y-120809523D01*
X122714285Y-120904761D01*
X122619047Y-120952380D01*
X122428571Y-120952380D01*
X123714285Y-120285714D02*
X123714285Y-120952380D01*
X123476190Y-119904761D02*
X123238095Y-120619047D01*
X123857142Y-120619047D01*
X122904761Y-102047619D02*
X122809523Y-102000000D01*
X122714285Y-101904761D01*
X122571428Y-101761904D01*
X122476190Y-101714285D01*
X122380952Y-101714285D01*
X122428571Y-101952380D02*
X122333333Y-101904761D01*
X122238095Y-101809523D01*
X122190476Y-101619047D01*
X122190476Y-101285714D01*
X122238095Y-101095238D01*
X122333333Y-101000000D01*
X122428571Y-100952380D01*
X122619047Y-100952380D01*
X122714285Y-101000000D01*
X122809523Y-101095238D01*
X122857142Y-101285714D01*
X122857142Y-101619047D01*
X122809523Y-101809523D01*
X122714285Y-101904761D01*
X122619047Y-101952380D01*
X122428571Y-101952380D01*
X123190476Y-100952380D02*
X123809523Y-100952380D01*
X123476190Y-101333333D01*
X123619047Y-101333333D01*
X123714285Y-101380952D01*
X123761904Y-101428571D01*
X123809523Y-101523809D01*
X123809523Y-101761904D01*
X123761904Y-101857142D01*
X123714285Y-101904761D01*
X123619047Y-101952380D01*
X123333333Y-101952380D01*
X123238095Y-101904761D01*
X123190476Y-101857142D01*
X122904761Y-83047619D02*
X122809523Y-83000000D01*
X122714285Y-82904761D01*
X122571428Y-82761904D01*
X122476190Y-82714285D01*
X122380952Y-82714285D01*
X122428571Y-82952380D02*
X122333333Y-82904761D01*
X122238095Y-82809523D01*
X122190476Y-82619047D01*
X122190476Y-82285714D01*
X122238095Y-82095238D01*
X122333333Y-82000000D01*
X122428571Y-81952380D01*
X122619047Y-81952380D01*
X122714285Y-82000000D01*
X122809523Y-82095238D01*
X122857142Y-82285714D01*
X122857142Y-82619047D01*
X122809523Y-82809523D01*
X122714285Y-82904761D01*
X122619047Y-82952380D01*
X122428571Y-82952380D01*
X123238095Y-82047619D02*
X123285714Y-82000000D01*
X123380952Y-81952380D01*
X123619047Y-81952380D01*
X123714285Y-82000000D01*
X123761904Y-82047619D01*
X123809523Y-82142857D01*
X123809523Y-82238095D01*
X123761904Y-82380952D01*
X123190476Y-82952380D01*
X123809523Y-82952380D01*
X122904761Y-64047619D02*
X122809523Y-64000000D01*
X122714285Y-63904761D01*
X122571428Y-63761904D01*
X122476190Y-63714285D01*
X122380952Y-63714285D01*
X122428571Y-63952380D02*
X122333333Y-63904761D01*
X122238095Y-63809523D01*
X122190476Y-63619047D01*
X122190476Y-63285714D01*
X122238095Y-63095238D01*
X122333333Y-63000000D01*
X122428571Y-62952380D01*
X122619047Y-62952380D01*
X122714285Y-63000000D01*
X122809523Y-63095238D01*
X122857142Y-63285714D01*
X122857142Y-63619047D01*
X122809523Y-63809523D01*
X122714285Y-63904761D01*
X122619047Y-63952380D01*
X122428571Y-63952380D01*
X123809523Y-63952380D02*
X123238095Y-63952380D01*
X123523809Y-63952380D02*
X123523809Y-62952380D01*
X123428571Y-63095238D01*
X123333333Y-63190476D01*
X123238095Y-63238095D01*
X136161904Y-126652380D02*
X136161904Y-125652380D01*
X136733333Y-126652380D02*
X136304761Y-126080952D01*
X136733333Y-125652380D02*
X136161904Y-126223809D01*
X137590476Y-125985714D02*
X137590476Y-126652380D01*
X137352380Y-125604761D02*
X137114285Y-126319047D01*
X137733333Y-126319047D01*
X136161904Y-107652380D02*
X136161904Y-106652380D01*
X136733333Y-107652380D02*
X136304761Y-107080952D01*
X136733333Y-106652380D02*
X136161904Y-107223809D01*
X137066666Y-106652380D02*
X137685714Y-106652380D01*
X137352380Y-107033333D01*
X137495238Y-107033333D01*
X137590476Y-107080952D01*
X137638095Y-107128571D01*
X137685714Y-107223809D01*
X137685714Y-107461904D01*
X137638095Y-107557142D01*
X137590476Y-107604761D01*
X137495238Y-107652380D01*
X137209523Y-107652380D01*
X137114285Y-107604761D01*
X137066666Y-107557142D01*
X136161904Y-88602380D02*
X136161904Y-87602380D01*
X136733333Y-88602380D02*
X136304761Y-88030952D01*
X136733333Y-87602380D02*
X136161904Y-88173809D01*
X137114285Y-87697619D02*
X137161904Y-87650000D01*
X137257142Y-87602380D01*
X137495238Y-87602380D01*
X137590476Y-87650000D01*
X137638095Y-87697619D01*
X137685714Y-87792857D01*
X137685714Y-87888095D01*
X137638095Y-88030952D01*
X137066666Y-88602380D01*
X137685714Y-88602380D01*
X136161904Y-69652380D02*
X136161904Y-68652380D01*
X136733333Y-69652380D02*
X136304761Y-69080952D01*
X136733333Y-68652380D02*
X136161904Y-69223809D01*
X137685714Y-69652380D02*
X137114285Y-69652380D01*
X137400000Y-69652380D02*
X137400000Y-68652380D01*
X137304761Y-68795238D01*
X137209523Y-68890476D01*
X137114285Y-68938095D01*
X151916666Y-124702380D02*
X151916666Y-125416666D01*
X151869047Y-125559523D01*
X151773809Y-125654761D01*
X151630952Y-125702380D01*
X151535714Y-125702380D01*
X152297619Y-124702380D02*
X152964285Y-124702380D01*
X152535714Y-125702380D01*
X151916666Y-105702380D02*
X151916666Y-106416666D01*
X151869047Y-106559523D01*
X151773809Y-106654761D01*
X151630952Y-106702380D01*
X151535714Y-106702380D01*
X152821428Y-105702380D02*
X152630952Y-105702380D01*
X152535714Y-105750000D01*
X152488095Y-105797619D01*
X152392857Y-105940476D01*
X152345238Y-106130952D01*
X152345238Y-106511904D01*
X152392857Y-106607142D01*
X152440476Y-106654761D01*
X152535714Y-106702380D01*
X152726190Y-106702380D01*
X152821428Y-106654761D01*
X152869047Y-106607142D01*
X152916666Y-106511904D01*
X152916666Y-106273809D01*
X152869047Y-106178571D01*
X152821428Y-106130952D01*
X152726190Y-106083333D01*
X152535714Y-106083333D01*
X152440476Y-106130952D01*
X152392857Y-106178571D01*
X152345238Y-106273809D01*
X151666666Y-86702380D02*
X151666666Y-87416666D01*
X151619047Y-87559523D01*
X151523809Y-87654761D01*
X151380952Y-87702380D01*
X151285714Y-87702380D01*
X152619047Y-86702380D02*
X152142857Y-86702380D01*
X152095238Y-87178571D01*
X152142857Y-87130952D01*
X152238095Y-87083333D01*
X152476190Y-87083333D01*
X152571428Y-87130952D01*
X152619047Y-87178571D01*
X152666666Y-87273809D01*
X152666666Y-87511904D01*
X152619047Y-87607142D01*
X152571428Y-87654761D01*
X152476190Y-87702380D01*
X152238095Y-87702380D01*
X152142857Y-87654761D01*
X152095238Y-87607142D01*
X151666666Y-67702380D02*
X151666666Y-68416666D01*
X151619047Y-68559523D01*
X151523809Y-68654761D01*
X151380952Y-68702380D01*
X151285714Y-68702380D01*
X152571428Y-68035714D02*
X152571428Y-68702380D01*
X152333333Y-67654761D02*
X152095238Y-68369047D01*
X152714285Y-68369047D01*
X113587380Y-55333333D02*
X114301666Y-55333333D01*
X114444523Y-55380952D01*
X114539761Y-55476190D01*
X114587380Y-55619047D01*
X114587380Y-55714285D01*
X113587380Y-54952380D02*
X113587380Y-54333333D01*
X113968333Y-54666666D01*
X113968333Y-54523809D01*
X114015952Y-54428571D01*
X114063571Y-54380952D01*
X114158809Y-54333333D01*
X114396904Y-54333333D01*
X114492142Y-54380952D01*
X114539761Y-54428571D01*
X114587380Y-54523809D01*
X114587380Y-54809523D01*
X114539761Y-54904761D01*
X114492142Y-54952380D01*
X100666666Y-133952380D02*
X100666666Y-134666666D01*
X100619047Y-134809523D01*
X100523809Y-134904761D01*
X100380952Y-134952380D01*
X100285714Y-134952380D01*
X101095238Y-134047619D02*
X101142857Y-134000000D01*
X101238095Y-133952380D01*
X101476190Y-133952380D01*
X101571428Y-134000000D01*
X101619047Y-134047619D01*
X101666666Y-134142857D01*
X101666666Y-134238095D01*
X101619047Y-134380952D01*
X101047619Y-134952380D01*
X101666666Y-134952380D01*
X85666666Y-59702380D02*
X85666666Y-60416666D01*
X85619047Y-60559523D01*
X85523809Y-60654761D01*
X85380952Y-60702380D01*
X85285714Y-60702380D01*
X86666666Y-60702380D02*
X86095238Y-60702380D01*
X86380952Y-60702380D02*
X86380952Y-59702380D01*
X86285714Y-59845238D01*
X86190476Y-59940476D01*
X86095238Y-59988095D01*
X95082380Y-120404285D02*
X94082380Y-120404285D01*
X94082380Y-120166190D01*
X94130000Y-120023333D01*
X94225238Y-119928095D01*
X94320476Y-119880476D01*
X94510952Y-119832857D01*
X94653809Y-119832857D01*
X94844285Y-119880476D01*
X94939523Y-119928095D01*
X95034761Y-120023333D01*
X95082380Y-120166190D01*
X95082380Y-120404285D01*
X95082380Y-118880476D02*
X95082380Y-119451904D01*
X95082380Y-119166190D02*
X94082380Y-119166190D01*
X94225238Y-119261428D01*
X94320476Y-119356666D01*
X94368095Y-119451904D01*
X94177619Y-118499523D02*
X94130000Y-118451904D01*
X94082380Y-118356666D01*
X94082380Y-118118571D01*
X94130000Y-118023333D01*
X94177619Y-117975714D01*
X94272857Y-117928095D01*
X94368095Y-117928095D01*
X94510952Y-117975714D01*
X95082380Y-118547142D01*
X95082380Y-117928095D01*
X95402380Y-123261904D02*
X94402380Y-123261904D01*
X95402380Y-122690476D02*
X94830952Y-123119047D01*
X94402380Y-122690476D02*
X94973809Y-123261904D01*
X99702380Y-120464285D02*
X98702380Y-120464285D01*
X98702380Y-120226190D01*
X98750000Y-120083333D01*
X98845238Y-119988095D01*
X98940476Y-119940476D01*
X99130952Y-119892857D01*
X99273809Y-119892857D01*
X99464285Y-119940476D01*
X99559523Y-119988095D01*
X99654761Y-120083333D01*
X99702380Y-120226190D01*
X99702380Y-120464285D01*
X99702380Y-118940476D02*
X99702380Y-119511904D01*
X99702380Y-119226190D02*
X98702380Y-119226190D01*
X98845238Y-119321428D01*
X98940476Y-119416666D01*
X98988095Y-119511904D01*
X99702380Y-117988095D02*
X99702380Y-118559523D01*
X99702380Y-118273809D02*
X98702380Y-118273809D01*
X98845238Y-118369047D01*
X98940476Y-118464285D01*
X98988095Y-118559523D01*
X103502380Y-115761904D02*
X102502380Y-115761904D01*
X103502380Y-115190476D02*
X102930952Y-115619047D01*
X102502380Y-115190476D02*
X103073809Y-115761904D01*
X90082380Y-120404285D02*
X89082380Y-120404285D01*
X89082380Y-120166190D01*
X89130000Y-120023333D01*
X89225238Y-119928095D01*
X89320476Y-119880476D01*
X89510952Y-119832857D01*
X89653809Y-119832857D01*
X89844285Y-119880476D01*
X89939523Y-119928095D01*
X90034761Y-120023333D01*
X90082380Y-120166190D01*
X90082380Y-120404285D01*
X90082380Y-118880476D02*
X90082380Y-119451904D01*
X90082380Y-119166190D02*
X89082380Y-119166190D01*
X89225238Y-119261428D01*
X89320476Y-119356666D01*
X89368095Y-119451904D01*
X89082380Y-118261428D02*
X89082380Y-118166190D01*
X89130000Y-118070952D01*
X89177619Y-118023333D01*
X89272857Y-117975714D01*
X89463333Y-117928095D01*
X89701428Y-117928095D01*
X89891904Y-117975714D01*
X89987142Y-118023333D01*
X90034761Y-118070952D01*
X90082380Y-118166190D01*
X90082380Y-118261428D01*
X90034761Y-118356666D01*
X89987142Y-118404285D01*
X89891904Y-118451904D01*
X89701428Y-118499523D01*
X89463333Y-118499523D01*
X89272857Y-118451904D01*
X89177619Y-118404285D01*
X89130000Y-118356666D01*
X89082380Y-118261428D01*
X90402380Y-123261904D02*
X89402380Y-123261904D01*
X90402380Y-122690476D02*
X89830952Y-123119047D01*
X89402380Y-122690476D02*
X89973809Y-123261904D01*
X85702380Y-120238095D02*
X84702380Y-120238095D01*
X84702380Y-120000000D01*
X84750000Y-119857142D01*
X84845238Y-119761904D01*
X84940476Y-119714285D01*
X85130952Y-119666666D01*
X85273809Y-119666666D01*
X85464285Y-119714285D01*
X85559523Y-119761904D01*
X85654761Y-119857142D01*
X85702380Y-120000000D01*
X85702380Y-120238095D01*
X85702380Y-119190476D02*
X85702380Y-119000000D01*
X85654761Y-118904761D01*
X85607142Y-118857142D01*
X85464285Y-118761904D01*
X85273809Y-118714285D01*
X84892857Y-118714285D01*
X84797619Y-118761904D01*
X84750000Y-118809523D01*
X84702380Y-118904761D01*
X84702380Y-119095238D01*
X84750000Y-119190476D01*
X84797619Y-119238095D01*
X84892857Y-119285714D01*
X85130952Y-119285714D01*
X85226190Y-119238095D01*
X85273809Y-119190476D01*
X85321428Y-119095238D01*
X85321428Y-118904761D01*
X85273809Y-118809523D01*
X85226190Y-118761904D01*
X85130952Y-118714285D01*
X89502380Y-115641904D02*
X88502380Y-115641904D01*
X89502380Y-115070476D02*
X88930952Y-115499047D01*
X88502380Y-115070476D02*
X89073809Y-115641904D01*
X126572380Y-115548095D02*
X125572380Y-115548095D01*
X125572380Y-115310000D01*
X125620000Y-115167142D01*
X125715238Y-115071904D01*
X125810476Y-115024285D01*
X126000952Y-114976666D01*
X126143809Y-114976666D01*
X126334285Y-115024285D01*
X126429523Y-115071904D01*
X126524761Y-115167142D01*
X126572380Y-115310000D01*
X126572380Y-115548095D01*
X126000952Y-114405238D02*
X125953333Y-114500476D01*
X125905714Y-114548095D01*
X125810476Y-114595714D01*
X125762857Y-114595714D01*
X125667619Y-114548095D01*
X125620000Y-114500476D01*
X125572380Y-114405238D01*
X125572380Y-114214761D01*
X125620000Y-114119523D01*
X125667619Y-114071904D01*
X125762857Y-114024285D01*
X125810476Y-114024285D01*
X125905714Y-114071904D01*
X125953333Y-114119523D01*
X126000952Y-114214761D01*
X126000952Y-114405238D01*
X126048571Y-114500476D01*
X126096190Y-114548095D01*
X126191428Y-114595714D01*
X126381904Y-114595714D01*
X126477142Y-114548095D01*
X126524761Y-114500476D01*
X126572380Y-114405238D01*
X126572380Y-114214761D01*
X126524761Y-114119523D01*
X126477142Y-114071904D01*
X126381904Y-114024285D01*
X126191428Y-114024285D01*
X126096190Y-114071904D01*
X126048571Y-114119523D01*
X126000952Y-114214761D01*
X126252380Y-111261904D02*
X125252380Y-111261904D01*
X126252380Y-110690476D02*
X125680952Y-111119047D01*
X125252380Y-110690476D02*
X125823809Y-111261904D01*
X118022380Y-116525595D02*
X117022380Y-116525595D01*
X117022380Y-116287500D01*
X117070000Y-116144642D01*
X117165238Y-116049404D01*
X117260476Y-116001785D01*
X117450952Y-115954166D01*
X117593809Y-115954166D01*
X117784285Y-116001785D01*
X117879523Y-116049404D01*
X117974761Y-116144642D01*
X118022380Y-116287500D01*
X118022380Y-116525595D01*
X117022380Y-115620833D02*
X117022380Y-114954166D01*
X118022380Y-115382738D01*
X126572380Y-96548095D02*
X125572380Y-96548095D01*
X125572380Y-96310000D01*
X125620000Y-96167142D01*
X125715238Y-96071904D01*
X125810476Y-96024285D01*
X126000952Y-95976666D01*
X126143809Y-95976666D01*
X126334285Y-96024285D01*
X126429523Y-96071904D01*
X126524761Y-96167142D01*
X126572380Y-96310000D01*
X126572380Y-96548095D01*
X125572380Y-95119523D02*
X125572380Y-95310000D01*
X125620000Y-95405238D01*
X125667619Y-95452857D01*
X125810476Y-95548095D01*
X126000952Y-95595714D01*
X126381904Y-95595714D01*
X126477142Y-95548095D01*
X126524761Y-95500476D01*
X126572380Y-95405238D01*
X126572380Y-95214761D01*
X126524761Y-95119523D01*
X126477142Y-95071904D01*
X126381904Y-95024285D01*
X126143809Y-95024285D01*
X126048571Y-95071904D01*
X126000952Y-95119523D01*
X125953333Y-95214761D01*
X125953333Y-95405238D01*
X126000952Y-95500476D01*
X126048571Y-95548095D01*
X126143809Y-95595714D01*
X126252380Y-92261904D02*
X125252380Y-92261904D01*
X126252380Y-91690476D02*
X125680952Y-92119047D01*
X125252380Y-91690476D02*
X125823809Y-92261904D01*
X118022380Y-97525595D02*
X117022380Y-97525595D01*
X117022380Y-97287500D01*
X117070000Y-97144642D01*
X117165238Y-97049404D01*
X117260476Y-97001785D01*
X117450952Y-96954166D01*
X117593809Y-96954166D01*
X117784285Y-97001785D01*
X117879523Y-97049404D01*
X117974761Y-97144642D01*
X118022380Y-97287500D01*
X118022380Y-97525595D01*
X117022380Y-96049404D02*
X117022380Y-96525595D01*
X117498571Y-96573214D01*
X117450952Y-96525595D01*
X117403333Y-96430357D01*
X117403333Y-96192261D01*
X117450952Y-96097023D01*
X117498571Y-96049404D01*
X117593809Y-96001785D01*
X117831904Y-96001785D01*
X117927142Y-96049404D01*
X117974761Y-96097023D01*
X118022380Y-96192261D01*
X118022380Y-96430357D01*
X117974761Y-96525595D01*
X117927142Y-96573214D01*
X126572380Y-77548095D02*
X125572380Y-77548095D01*
X125572380Y-77310000D01*
X125620000Y-77167142D01*
X125715238Y-77071904D01*
X125810476Y-77024285D01*
X126000952Y-76976666D01*
X126143809Y-76976666D01*
X126334285Y-77024285D01*
X126429523Y-77071904D01*
X126524761Y-77167142D01*
X126572380Y-77310000D01*
X126572380Y-77548095D01*
X125905714Y-76119523D02*
X126572380Y-76119523D01*
X125524761Y-76357619D02*
X126239047Y-76595714D01*
X126239047Y-75976666D01*
X126252380Y-73261904D02*
X125252380Y-73261904D01*
X126252380Y-72690476D02*
X125680952Y-73119047D01*
X125252380Y-72690476D02*
X125823809Y-73261904D01*
X118022380Y-77950595D02*
X117022380Y-77950595D01*
X117022380Y-77712500D01*
X117070000Y-77569642D01*
X117165238Y-77474404D01*
X117260476Y-77426785D01*
X117450952Y-77379166D01*
X117593809Y-77379166D01*
X117784285Y-77426785D01*
X117879523Y-77474404D01*
X117974761Y-77569642D01*
X118022380Y-77712500D01*
X118022380Y-77950595D01*
X117022380Y-77045833D02*
X117022380Y-76426785D01*
X117403333Y-76760119D01*
X117403333Y-76617261D01*
X117450952Y-76522023D01*
X117498571Y-76474404D01*
X117593809Y-76426785D01*
X117831904Y-76426785D01*
X117927142Y-76474404D01*
X117974761Y-76522023D01*
X118022380Y-76617261D01*
X118022380Y-76902976D01*
X117974761Y-76998214D01*
X117927142Y-77045833D01*
X126572380Y-58548095D02*
X125572380Y-58548095D01*
X125572380Y-58310000D01*
X125620000Y-58167142D01*
X125715238Y-58071904D01*
X125810476Y-58024285D01*
X126000952Y-57976666D01*
X126143809Y-57976666D01*
X126334285Y-58024285D01*
X126429523Y-58071904D01*
X126524761Y-58167142D01*
X126572380Y-58310000D01*
X126572380Y-58548095D01*
X125667619Y-57595714D02*
X125620000Y-57548095D01*
X125572380Y-57452857D01*
X125572380Y-57214761D01*
X125620000Y-57119523D01*
X125667619Y-57071904D01*
X125762857Y-57024285D01*
X125858095Y-57024285D01*
X126000952Y-57071904D01*
X126572380Y-57643333D01*
X126572380Y-57024285D01*
X126252380Y-54261904D02*
X125252380Y-54261904D01*
X126252380Y-53690476D02*
X125680952Y-54119047D01*
X125252380Y-53690476D02*
X125823809Y-54261904D01*
X118022380Y-59025595D02*
X117022380Y-59025595D01*
X117022380Y-58787500D01*
X117070000Y-58644642D01*
X117165238Y-58549404D01*
X117260476Y-58501785D01*
X117450952Y-58454166D01*
X117593809Y-58454166D01*
X117784285Y-58501785D01*
X117879523Y-58549404D01*
X117974761Y-58644642D01*
X118022380Y-58787500D01*
X118022380Y-59025595D01*
X118022380Y-57501785D02*
X118022380Y-58073214D01*
X118022380Y-57787500D02*
X117022380Y-57787500D01*
X117165238Y-57882738D01*
X117260476Y-57977976D01*
X117308095Y-58073214D01*
X93665714Y-63386666D02*
X94141904Y-63386666D01*
X93570476Y-63672380D02*
X93903809Y-62672380D01*
X94237142Y-63672380D01*
X95094285Y-63672380D02*
X94522857Y-63672380D01*
X94808571Y-63672380D02*
X94808571Y-62672380D01*
X94713333Y-62815238D01*
X94618095Y-62910476D01*
X94522857Y-62958095D01*
M02*
