G04 #@! TF.GenerationSoftware,KiCad,Pcbnew,5.1.2-f72e74a~84~ubuntu18.04.1*
G04 #@! TF.CreationDate,2019-06-17T19:39:07+02:00*
G04 #@! TF.ProjectId,msg-relay,6d73672d-7265-46c6-9179-2e6b69636164,rev?*
G04 #@! TF.SameCoordinates,Original*
G04 #@! TF.FileFunction,Paste,Top*
G04 #@! TF.FilePolarity,Positive*
%FSLAX46Y46*%
G04 Gerber Fmt 4.6, Leading zero omitted, Abs format (unit mm)*
G04 Created by KiCad (PCBNEW 5.1.2-f72e74a~84~ubuntu18.04.1) date 2019-06-17 19:39:07*
%MOMM*%
%LPD*%
G04 APERTURE LIST*
%ADD10C,0.100000*%
%ADD11C,0.875000*%
%ADD12R,0.900000X0.800000*%
G04 APERTURE END LIST*
D10*
G36*
X106527691Y-121063553D02*
G01*
X106548926Y-121066703D01*
X106569750Y-121071919D01*
X106589962Y-121079151D01*
X106609368Y-121088330D01*
X106627781Y-121099366D01*
X106645024Y-121112154D01*
X106660930Y-121126570D01*
X106675346Y-121142476D01*
X106688134Y-121159719D01*
X106699170Y-121178132D01*
X106708349Y-121197538D01*
X106715581Y-121217750D01*
X106720797Y-121238574D01*
X106723947Y-121259809D01*
X106725000Y-121281250D01*
X106725000Y-121718750D01*
X106723947Y-121740191D01*
X106720797Y-121761426D01*
X106715581Y-121782250D01*
X106708349Y-121802462D01*
X106699170Y-121821868D01*
X106688134Y-121840281D01*
X106675346Y-121857524D01*
X106660930Y-121873430D01*
X106645024Y-121887846D01*
X106627781Y-121900634D01*
X106609368Y-121911670D01*
X106589962Y-121920849D01*
X106569750Y-121928081D01*
X106548926Y-121933297D01*
X106527691Y-121936447D01*
X106506250Y-121937500D01*
X105993750Y-121937500D01*
X105972309Y-121936447D01*
X105951074Y-121933297D01*
X105930250Y-121928081D01*
X105910038Y-121920849D01*
X105890632Y-121911670D01*
X105872219Y-121900634D01*
X105854976Y-121887846D01*
X105839070Y-121873430D01*
X105824654Y-121857524D01*
X105811866Y-121840281D01*
X105800830Y-121821868D01*
X105791651Y-121802462D01*
X105784419Y-121782250D01*
X105779203Y-121761426D01*
X105776053Y-121740191D01*
X105775000Y-121718750D01*
X105775000Y-121281250D01*
X105776053Y-121259809D01*
X105779203Y-121238574D01*
X105784419Y-121217750D01*
X105791651Y-121197538D01*
X105800830Y-121178132D01*
X105811866Y-121159719D01*
X105824654Y-121142476D01*
X105839070Y-121126570D01*
X105854976Y-121112154D01*
X105872219Y-121099366D01*
X105890632Y-121088330D01*
X105910038Y-121079151D01*
X105930250Y-121071919D01*
X105951074Y-121066703D01*
X105972309Y-121063553D01*
X105993750Y-121062500D01*
X106506250Y-121062500D01*
X106527691Y-121063553D01*
X106527691Y-121063553D01*
G37*
D11*
X106250000Y-121500000D03*
D10*
G36*
X106527691Y-122638553D02*
G01*
X106548926Y-122641703D01*
X106569750Y-122646919D01*
X106589962Y-122654151D01*
X106609368Y-122663330D01*
X106627781Y-122674366D01*
X106645024Y-122687154D01*
X106660930Y-122701570D01*
X106675346Y-122717476D01*
X106688134Y-122734719D01*
X106699170Y-122753132D01*
X106708349Y-122772538D01*
X106715581Y-122792750D01*
X106720797Y-122813574D01*
X106723947Y-122834809D01*
X106725000Y-122856250D01*
X106725000Y-123293750D01*
X106723947Y-123315191D01*
X106720797Y-123336426D01*
X106715581Y-123357250D01*
X106708349Y-123377462D01*
X106699170Y-123396868D01*
X106688134Y-123415281D01*
X106675346Y-123432524D01*
X106660930Y-123448430D01*
X106645024Y-123462846D01*
X106627781Y-123475634D01*
X106609368Y-123486670D01*
X106589962Y-123495849D01*
X106569750Y-123503081D01*
X106548926Y-123508297D01*
X106527691Y-123511447D01*
X106506250Y-123512500D01*
X105993750Y-123512500D01*
X105972309Y-123511447D01*
X105951074Y-123508297D01*
X105930250Y-123503081D01*
X105910038Y-123495849D01*
X105890632Y-123486670D01*
X105872219Y-123475634D01*
X105854976Y-123462846D01*
X105839070Y-123448430D01*
X105824654Y-123432524D01*
X105811866Y-123415281D01*
X105800830Y-123396868D01*
X105791651Y-123377462D01*
X105784419Y-123357250D01*
X105779203Y-123336426D01*
X105776053Y-123315191D01*
X105775000Y-123293750D01*
X105775000Y-122856250D01*
X105776053Y-122834809D01*
X105779203Y-122813574D01*
X105784419Y-122792750D01*
X105791651Y-122772538D01*
X105800830Y-122753132D01*
X105811866Y-122734719D01*
X105824654Y-122717476D01*
X105839070Y-122701570D01*
X105854976Y-122687154D01*
X105872219Y-122674366D01*
X105890632Y-122663330D01*
X105910038Y-122654151D01*
X105930250Y-122646919D01*
X105951074Y-122641703D01*
X105972309Y-122638553D01*
X105993750Y-122637500D01*
X106506250Y-122637500D01*
X106527691Y-122638553D01*
X106527691Y-122638553D01*
G37*
D11*
X106250000Y-123075000D03*
D10*
G36*
X97027691Y-127563553D02*
G01*
X97048926Y-127566703D01*
X97069750Y-127571919D01*
X97089962Y-127579151D01*
X97109368Y-127588330D01*
X97127781Y-127599366D01*
X97145024Y-127612154D01*
X97160930Y-127626570D01*
X97175346Y-127642476D01*
X97188134Y-127659719D01*
X97199170Y-127678132D01*
X97208349Y-127697538D01*
X97215581Y-127717750D01*
X97220797Y-127738574D01*
X97223947Y-127759809D01*
X97225000Y-127781250D01*
X97225000Y-128218750D01*
X97223947Y-128240191D01*
X97220797Y-128261426D01*
X97215581Y-128282250D01*
X97208349Y-128302462D01*
X97199170Y-128321868D01*
X97188134Y-128340281D01*
X97175346Y-128357524D01*
X97160930Y-128373430D01*
X97145024Y-128387846D01*
X97127781Y-128400634D01*
X97109368Y-128411670D01*
X97089962Y-128420849D01*
X97069750Y-128428081D01*
X97048926Y-128433297D01*
X97027691Y-128436447D01*
X97006250Y-128437500D01*
X96493750Y-128437500D01*
X96472309Y-128436447D01*
X96451074Y-128433297D01*
X96430250Y-128428081D01*
X96410038Y-128420849D01*
X96390632Y-128411670D01*
X96372219Y-128400634D01*
X96354976Y-128387846D01*
X96339070Y-128373430D01*
X96324654Y-128357524D01*
X96311866Y-128340281D01*
X96300830Y-128321868D01*
X96291651Y-128302462D01*
X96284419Y-128282250D01*
X96279203Y-128261426D01*
X96276053Y-128240191D01*
X96275000Y-128218750D01*
X96275000Y-127781250D01*
X96276053Y-127759809D01*
X96279203Y-127738574D01*
X96284419Y-127717750D01*
X96291651Y-127697538D01*
X96300830Y-127678132D01*
X96311866Y-127659719D01*
X96324654Y-127642476D01*
X96339070Y-127626570D01*
X96354976Y-127612154D01*
X96372219Y-127599366D01*
X96390632Y-127588330D01*
X96410038Y-127579151D01*
X96430250Y-127571919D01*
X96451074Y-127566703D01*
X96472309Y-127563553D01*
X96493750Y-127562500D01*
X97006250Y-127562500D01*
X97027691Y-127563553D01*
X97027691Y-127563553D01*
G37*
D11*
X96750000Y-128000000D03*
D10*
G36*
X97027691Y-125988553D02*
G01*
X97048926Y-125991703D01*
X97069750Y-125996919D01*
X97089962Y-126004151D01*
X97109368Y-126013330D01*
X97127781Y-126024366D01*
X97145024Y-126037154D01*
X97160930Y-126051570D01*
X97175346Y-126067476D01*
X97188134Y-126084719D01*
X97199170Y-126103132D01*
X97208349Y-126122538D01*
X97215581Y-126142750D01*
X97220797Y-126163574D01*
X97223947Y-126184809D01*
X97225000Y-126206250D01*
X97225000Y-126643750D01*
X97223947Y-126665191D01*
X97220797Y-126686426D01*
X97215581Y-126707250D01*
X97208349Y-126727462D01*
X97199170Y-126746868D01*
X97188134Y-126765281D01*
X97175346Y-126782524D01*
X97160930Y-126798430D01*
X97145024Y-126812846D01*
X97127781Y-126825634D01*
X97109368Y-126836670D01*
X97089962Y-126845849D01*
X97069750Y-126853081D01*
X97048926Y-126858297D01*
X97027691Y-126861447D01*
X97006250Y-126862500D01*
X96493750Y-126862500D01*
X96472309Y-126861447D01*
X96451074Y-126858297D01*
X96430250Y-126853081D01*
X96410038Y-126845849D01*
X96390632Y-126836670D01*
X96372219Y-126825634D01*
X96354976Y-126812846D01*
X96339070Y-126798430D01*
X96324654Y-126782524D01*
X96311866Y-126765281D01*
X96300830Y-126746868D01*
X96291651Y-126727462D01*
X96284419Y-126707250D01*
X96279203Y-126686426D01*
X96276053Y-126665191D01*
X96275000Y-126643750D01*
X96275000Y-126206250D01*
X96276053Y-126184809D01*
X96279203Y-126163574D01*
X96284419Y-126142750D01*
X96291651Y-126122538D01*
X96300830Y-126103132D01*
X96311866Y-126084719D01*
X96324654Y-126067476D01*
X96339070Y-126051570D01*
X96354976Y-126037154D01*
X96372219Y-126024366D01*
X96390632Y-126013330D01*
X96410038Y-126004151D01*
X96430250Y-125996919D01*
X96451074Y-125991703D01*
X96472309Y-125988553D01*
X96493750Y-125987500D01*
X97006250Y-125987500D01*
X97027691Y-125988553D01*
X97027691Y-125988553D01*
G37*
D11*
X96750000Y-126425000D03*
D10*
G36*
X82277691Y-120988553D02*
G01*
X82298926Y-120991703D01*
X82319750Y-120996919D01*
X82339962Y-121004151D01*
X82359368Y-121013330D01*
X82377781Y-121024366D01*
X82395024Y-121037154D01*
X82410930Y-121051570D01*
X82425346Y-121067476D01*
X82438134Y-121084719D01*
X82449170Y-121103132D01*
X82458349Y-121122538D01*
X82465581Y-121142750D01*
X82470797Y-121163574D01*
X82473947Y-121184809D01*
X82475000Y-121206250D01*
X82475000Y-121643750D01*
X82473947Y-121665191D01*
X82470797Y-121686426D01*
X82465581Y-121707250D01*
X82458349Y-121727462D01*
X82449170Y-121746868D01*
X82438134Y-121765281D01*
X82425346Y-121782524D01*
X82410930Y-121798430D01*
X82395024Y-121812846D01*
X82377781Y-121825634D01*
X82359368Y-121836670D01*
X82339962Y-121845849D01*
X82319750Y-121853081D01*
X82298926Y-121858297D01*
X82277691Y-121861447D01*
X82256250Y-121862500D01*
X81743750Y-121862500D01*
X81722309Y-121861447D01*
X81701074Y-121858297D01*
X81680250Y-121853081D01*
X81660038Y-121845849D01*
X81640632Y-121836670D01*
X81622219Y-121825634D01*
X81604976Y-121812846D01*
X81589070Y-121798430D01*
X81574654Y-121782524D01*
X81561866Y-121765281D01*
X81550830Y-121746868D01*
X81541651Y-121727462D01*
X81534419Y-121707250D01*
X81529203Y-121686426D01*
X81526053Y-121665191D01*
X81525000Y-121643750D01*
X81525000Y-121206250D01*
X81526053Y-121184809D01*
X81529203Y-121163574D01*
X81534419Y-121142750D01*
X81541651Y-121122538D01*
X81550830Y-121103132D01*
X81561866Y-121084719D01*
X81574654Y-121067476D01*
X81589070Y-121051570D01*
X81604976Y-121037154D01*
X81622219Y-121024366D01*
X81640632Y-121013330D01*
X81660038Y-121004151D01*
X81680250Y-120996919D01*
X81701074Y-120991703D01*
X81722309Y-120988553D01*
X81743750Y-120987500D01*
X82256250Y-120987500D01*
X82277691Y-120988553D01*
X82277691Y-120988553D01*
G37*
D11*
X82000000Y-121425000D03*
D10*
G36*
X82277691Y-122563553D02*
G01*
X82298926Y-122566703D01*
X82319750Y-122571919D01*
X82339962Y-122579151D01*
X82359368Y-122588330D01*
X82377781Y-122599366D01*
X82395024Y-122612154D01*
X82410930Y-122626570D01*
X82425346Y-122642476D01*
X82438134Y-122659719D01*
X82449170Y-122678132D01*
X82458349Y-122697538D01*
X82465581Y-122717750D01*
X82470797Y-122738574D01*
X82473947Y-122759809D01*
X82475000Y-122781250D01*
X82475000Y-123218750D01*
X82473947Y-123240191D01*
X82470797Y-123261426D01*
X82465581Y-123282250D01*
X82458349Y-123302462D01*
X82449170Y-123321868D01*
X82438134Y-123340281D01*
X82425346Y-123357524D01*
X82410930Y-123373430D01*
X82395024Y-123387846D01*
X82377781Y-123400634D01*
X82359368Y-123411670D01*
X82339962Y-123420849D01*
X82319750Y-123428081D01*
X82298926Y-123433297D01*
X82277691Y-123436447D01*
X82256250Y-123437500D01*
X81743750Y-123437500D01*
X81722309Y-123436447D01*
X81701074Y-123433297D01*
X81680250Y-123428081D01*
X81660038Y-123420849D01*
X81640632Y-123411670D01*
X81622219Y-123400634D01*
X81604976Y-123387846D01*
X81589070Y-123373430D01*
X81574654Y-123357524D01*
X81561866Y-123340281D01*
X81550830Y-123321868D01*
X81541651Y-123302462D01*
X81534419Y-123282250D01*
X81529203Y-123261426D01*
X81526053Y-123240191D01*
X81525000Y-123218750D01*
X81525000Y-122781250D01*
X81526053Y-122759809D01*
X81529203Y-122738574D01*
X81534419Y-122717750D01*
X81541651Y-122697538D01*
X81550830Y-122678132D01*
X81561866Y-122659719D01*
X81574654Y-122642476D01*
X81589070Y-122626570D01*
X81604976Y-122612154D01*
X81622219Y-122599366D01*
X81640632Y-122588330D01*
X81660038Y-122579151D01*
X81680250Y-122571919D01*
X81701074Y-122566703D01*
X81722309Y-122563553D01*
X81743750Y-122562500D01*
X82256250Y-122562500D01*
X82277691Y-122563553D01*
X82277691Y-122563553D01*
G37*
D11*
X82000000Y-123000000D03*
D10*
G36*
X92027691Y-127851053D02*
G01*
X92048926Y-127854203D01*
X92069750Y-127859419D01*
X92089962Y-127866651D01*
X92109368Y-127875830D01*
X92127781Y-127886866D01*
X92145024Y-127899654D01*
X92160930Y-127914070D01*
X92175346Y-127929976D01*
X92188134Y-127947219D01*
X92199170Y-127965632D01*
X92208349Y-127985038D01*
X92215581Y-128005250D01*
X92220797Y-128026074D01*
X92223947Y-128047309D01*
X92225000Y-128068750D01*
X92225000Y-128506250D01*
X92223947Y-128527691D01*
X92220797Y-128548926D01*
X92215581Y-128569750D01*
X92208349Y-128589962D01*
X92199170Y-128609368D01*
X92188134Y-128627781D01*
X92175346Y-128645024D01*
X92160930Y-128660930D01*
X92145024Y-128675346D01*
X92127781Y-128688134D01*
X92109368Y-128699170D01*
X92089962Y-128708349D01*
X92069750Y-128715581D01*
X92048926Y-128720797D01*
X92027691Y-128723947D01*
X92006250Y-128725000D01*
X91493750Y-128725000D01*
X91472309Y-128723947D01*
X91451074Y-128720797D01*
X91430250Y-128715581D01*
X91410038Y-128708349D01*
X91390632Y-128699170D01*
X91372219Y-128688134D01*
X91354976Y-128675346D01*
X91339070Y-128660930D01*
X91324654Y-128645024D01*
X91311866Y-128627781D01*
X91300830Y-128609368D01*
X91291651Y-128589962D01*
X91284419Y-128569750D01*
X91279203Y-128548926D01*
X91276053Y-128527691D01*
X91275000Y-128506250D01*
X91275000Y-128068750D01*
X91276053Y-128047309D01*
X91279203Y-128026074D01*
X91284419Y-128005250D01*
X91291651Y-127985038D01*
X91300830Y-127965632D01*
X91311866Y-127947219D01*
X91324654Y-127929976D01*
X91339070Y-127914070D01*
X91354976Y-127899654D01*
X91372219Y-127886866D01*
X91390632Y-127875830D01*
X91410038Y-127866651D01*
X91430250Y-127859419D01*
X91451074Y-127854203D01*
X91472309Y-127851053D01*
X91493750Y-127850000D01*
X92006250Y-127850000D01*
X92027691Y-127851053D01*
X92027691Y-127851053D01*
G37*
D11*
X91750000Y-128287500D03*
D10*
G36*
X92027691Y-126276053D02*
G01*
X92048926Y-126279203D01*
X92069750Y-126284419D01*
X92089962Y-126291651D01*
X92109368Y-126300830D01*
X92127781Y-126311866D01*
X92145024Y-126324654D01*
X92160930Y-126339070D01*
X92175346Y-126354976D01*
X92188134Y-126372219D01*
X92199170Y-126390632D01*
X92208349Y-126410038D01*
X92215581Y-126430250D01*
X92220797Y-126451074D01*
X92223947Y-126472309D01*
X92225000Y-126493750D01*
X92225000Y-126931250D01*
X92223947Y-126952691D01*
X92220797Y-126973926D01*
X92215581Y-126994750D01*
X92208349Y-127014962D01*
X92199170Y-127034368D01*
X92188134Y-127052781D01*
X92175346Y-127070024D01*
X92160930Y-127085930D01*
X92145024Y-127100346D01*
X92127781Y-127113134D01*
X92109368Y-127124170D01*
X92089962Y-127133349D01*
X92069750Y-127140581D01*
X92048926Y-127145797D01*
X92027691Y-127148947D01*
X92006250Y-127150000D01*
X91493750Y-127150000D01*
X91472309Y-127148947D01*
X91451074Y-127145797D01*
X91430250Y-127140581D01*
X91410038Y-127133349D01*
X91390632Y-127124170D01*
X91372219Y-127113134D01*
X91354976Y-127100346D01*
X91339070Y-127085930D01*
X91324654Y-127070024D01*
X91311866Y-127052781D01*
X91300830Y-127034368D01*
X91291651Y-127014962D01*
X91284419Y-126994750D01*
X91279203Y-126973926D01*
X91276053Y-126952691D01*
X91275000Y-126931250D01*
X91275000Y-126493750D01*
X91276053Y-126472309D01*
X91279203Y-126451074D01*
X91284419Y-126430250D01*
X91291651Y-126410038D01*
X91300830Y-126390632D01*
X91311866Y-126372219D01*
X91324654Y-126354976D01*
X91339070Y-126339070D01*
X91354976Y-126324654D01*
X91372219Y-126311866D01*
X91390632Y-126300830D01*
X91410038Y-126291651D01*
X91430250Y-126284419D01*
X91451074Y-126279203D01*
X91472309Y-126276053D01*
X91493750Y-126275000D01*
X92006250Y-126275000D01*
X92027691Y-126276053D01*
X92027691Y-126276053D01*
G37*
D11*
X91750000Y-126712500D03*
D10*
G36*
X117240191Y-121526053D02*
G01*
X117261426Y-121529203D01*
X117282250Y-121534419D01*
X117302462Y-121541651D01*
X117321868Y-121550830D01*
X117340281Y-121561866D01*
X117357524Y-121574654D01*
X117373430Y-121589070D01*
X117387846Y-121604976D01*
X117400634Y-121622219D01*
X117411670Y-121640632D01*
X117420849Y-121660038D01*
X117428081Y-121680250D01*
X117433297Y-121701074D01*
X117436447Y-121722309D01*
X117437500Y-121743750D01*
X117437500Y-122256250D01*
X117436447Y-122277691D01*
X117433297Y-122298926D01*
X117428081Y-122319750D01*
X117420849Y-122339962D01*
X117411670Y-122359368D01*
X117400634Y-122377781D01*
X117387846Y-122395024D01*
X117373430Y-122410930D01*
X117357524Y-122425346D01*
X117340281Y-122438134D01*
X117321868Y-122449170D01*
X117302462Y-122458349D01*
X117282250Y-122465581D01*
X117261426Y-122470797D01*
X117240191Y-122473947D01*
X117218750Y-122475000D01*
X116781250Y-122475000D01*
X116759809Y-122473947D01*
X116738574Y-122470797D01*
X116717750Y-122465581D01*
X116697538Y-122458349D01*
X116678132Y-122449170D01*
X116659719Y-122438134D01*
X116642476Y-122425346D01*
X116626570Y-122410930D01*
X116612154Y-122395024D01*
X116599366Y-122377781D01*
X116588330Y-122359368D01*
X116579151Y-122339962D01*
X116571919Y-122319750D01*
X116566703Y-122298926D01*
X116563553Y-122277691D01*
X116562500Y-122256250D01*
X116562500Y-121743750D01*
X116563553Y-121722309D01*
X116566703Y-121701074D01*
X116571919Y-121680250D01*
X116579151Y-121660038D01*
X116588330Y-121640632D01*
X116599366Y-121622219D01*
X116612154Y-121604976D01*
X116626570Y-121589070D01*
X116642476Y-121574654D01*
X116659719Y-121561866D01*
X116678132Y-121550830D01*
X116697538Y-121541651D01*
X116717750Y-121534419D01*
X116738574Y-121529203D01*
X116759809Y-121526053D01*
X116781250Y-121525000D01*
X117218750Y-121525000D01*
X117240191Y-121526053D01*
X117240191Y-121526053D01*
G37*
D11*
X117000000Y-122000000D03*
D10*
G36*
X118815191Y-121526053D02*
G01*
X118836426Y-121529203D01*
X118857250Y-121534419D01*
X118877462Y-121541651D01*
X118896868Y-121550830D01*
X118915281Y-121561866D01*
X118932524Y-121574654D01*
X118948430Y-121589070D01*
X118962846Y-121604976D01*
X118975634Y-121622219D01*
X118986670Y-121640632D01*
X118995849Y-121660038D01*
X119003081Y-121680250D01*
X119008297Y-121701074D01*
X119011447Y-121722309D01*
X119012500Y-121743750D01*
X119012500Y-122256250D01*
X119011447Y-122277691D01*
X119008297Y-122298926D01*
X119003081Y-122319750D01*
X118995849Y-122339962D01*
X118986670Y-122359368D01*
X118975634Y-122377781D01*
X118962846Y-122395024D01*
X118948430Y-122410930D01*
X118932524Y-122425346D01*
X118915281Y-122438134D01*
X118896868Y-122449170D01*
X118877462Y-122458349D01*
X118857250Y-122465581D01*
X118836426Y-122470797D01*
X118815191Y-122473947D01*
X118793750Y-122475000D01*
X118356250Y-122475000D01*
X118334809Y-122473947D01*
X118313574Y-122470797D01*
X118292750Y-122465581D01*
X118272538Y-122458349D01*
X118253132Y-122449170D01*
X118234719Y-122438134D01*
X118217476Y-122425346D01*
X118201570Y-122410930D01*
X118187154Y-122395024D01*
X118174366Y-122377781D01*
X118163330Y-122359368D01*
X118154151Y-122339962D01*
X118146919Y-122319750D01*
X118141703Y-122298926D01*
X118138553Y-122277691D01*
X118137500Y-122256250D01*
X118137500Y-121743750D01*
X118138553Y-121722309D01*
X118141703Y-121701074D01*
X118146919Y-121680250D01*
X118154151Y-121660038D01*
X118163330Y-121640632D01*
X118174366Y-121622219D01*
X118187154Y-121604976D01*
X118201570Y-121589070D01*
X118217476Y-121574654D01*
X118234719Y-121561866D01*
X118253132Y-121550830D01*
X118272538Y-121541651D01*
X118292750Y-121534419D01*
X118313574Y-121529203D01*
X118334809Y-121526053D01*
X118356250Y-121525000D01*
X118793750Y-121525000D01*
X118815191Y-121526053D01*
X118815191Y-121526053D01*
G37*
D11*
X118575000Y-122000000D03*
D10*
G36*
X119240191Y-110526053D02*
G01*
X119261426Y-110529203D01*
X119282250Y-110534419D01*
X119302462Y-110541651D01*
X119321868Y-110550830D01*
X119340281Y-110561866D01*
X119357524Y-110574654D01*
X119373430Y-110589070D01*
X119387846Y-110604976D01*
X119400634Y-110622219D01*
X119411670Y-110640632D01*
X119420849Y-110660038D01*
X119428081Y-110680250D01*
X119433297Y-110701074D01*
X119436447Y-110722309D01*
X119437500Y-110743750D01*
X119437500Y-111256250D01*
X119436447Y-111277691D01*
X119433297Y-111298926D01*
X119428081Y-111319750D01*
X119420849Y-111339962D01*
X119411670Y-111359368D01*
X119400634Y-111377781D01*
X119387846Y-111395024D01*
X119373430Y-111410930D01*
X119357524Y-111425346D01*
X119340281Y-111438134D01*
X119321868Y-111449170D01*
X119302462Y-111458349D01*
X119282250Y-111465581D01*
X119261426Y-111470797D01*
X119240191Y-111473947D01*
X119218750Y-111475000D01*
X118781250Y-111475000D01*
X118759809Y-111473947D01*
X118738574Y-111470797D01*
X118717750Y-111465581D01*
X118697538Y-111458349D01*
X118678132Y-111449170D01*
X118659719Y-111438134D01*
X118642476Y-111425346D01*
X118626570Y-111410930D01*
X118612154Y-111395024D01*
X118599366Y-111377781D01*
X118588330Y-111359368D01*
X118579151Y-111339962D01*
X118571919Y-111319750D01*
X118566703Y-111298926D01*
X118563553Y-111277691D01*
X118562500Y-111256250D01*
X118562500Y-110743750D01*
X118563553Y-110722309D01*
X118566703Y-110701074D01*
X118571919Y-110680250D01*
X118579151Y-110660038D01*
X118588330Y-110640632D01*
X118599366Y-110622219D01*
X118612154Y-110604976D01*
X118626570Y-110589070D01*
X118642476Y-110574654D01*
X118659719Y-110561866D01*
X118678132Y-110550830D01*
X118697538Y-110541651D01*
X118717750Y-110534419D01*
X118738574Y-110529203D01*
X118759809Y-110526053D01*
X118781250Y-110525000D01*
X119218750Y-110525000D01*
X119240191Y-110526053D01*
X119240191Y-110526053D01*
G37*
D11*
X119000000Y-111000000D03*
D10*
G36*
X120815191Y-110526053D02*
G01*
X120836426Y-110529203D01*
X120857250Y-110534419D01*
X120877462Y-110541651D01*
X120896868Y-110550830D01*
X120915281Y-110561866D01*
X120932524Y-110574654D01*
X120948430Y-110589070D01*
X120962846Y-110604976D01*
X120975634Y-110622219D01*
X120986670Y-110640632D01*
X120995849Y-110660038D01*
X121003081Y-110680250D01*
X121008297Y-110701074D01*
X121011447Y-110722309D01*
X121012500Y-110743750D01*
X121012500Y-111256250D01*
X121011447Y-111277691D01*
X121008297Y-111298926D01*
X121003081Y-111319750D01*
X120995849Y-111339962D01*
X120986670Y-111359368D01*
X120975634Y-111377781D01*
X120962846Y-111395024D01*
X120948430Y-111410930D01*
X120932524Y-111425346D01*
X120915281Y-111438134D01*
X120896868Y-111449170D01*
X120877462Y-111458349D01*
X120857250Y-111465581D01*
X120836426Y-111470797D01*
X120815191Y-111473947D01*
X120793750Y-111475000D01*
X120356250Y-111475000D01*
X120334809Y-111473947D01*
X120313574Y-111470797D01*
X120292750Y-111465581D01*
X120272538Y-111458349D01*
X120253132Y-111449170D01*
X120234719Y-111438134D01*
X120217476Y-111425346D01*
X120201570Y-111410930D01*
X120187154Y-111395024D01*
X120174366Y-111377781D01*
X120163330Y-111359368D01*
X120154151Y-111339962D01*
X120146919Y-111319750D01*
X120141703Y-111298926D01*
X120138553Y-111277691D01*
X120137500Y-111256250D01*
X120137500Y-110743750D01*
X120138553Y-110722309D01*
X120141703Y-110701074D01*
X120146919Y-110680250D01*
X120154151Y-110660038D01*
X120163330Y-110640632D01*
X120174366Y-110622219D01*
X120187154Y-110604976D01*
X120201570Y-110589070D01*
X120217476Y-110574654D01*
X120234719Y-110561866D01*
X120253132Y-110550830D01*
X120272538Y-110541651D01*
X120292750Y-110534419D01*
X120313574Y-110529203D01*
X120334809Y-110526053D01*
X120356250Y-110525000D01*
X120793750Y-110525000D01*
X120815191Y-110526053D01*
X120815191Y-110526053D01*
G37*
D11*
X120575000Y-111000000D03*
D10*
G36*
X117240191Y-102526053D02*
G01*
X117261426Y-102529203D01*
X117282250Y-102534419D01*
X117302462Y-102541651D01*
X117321868Y-102550830D01*
X117340281Y-102561866D01*
X117357524Y-102574654D01*
X117373430Y-102589070D01*
X117387846Y-102604976D01*
X117400634Y-102622219D01*
X117411670Y-102640632D01*
X117420849Y-102660038D01*
X117428081Y-102680250D01*
X117433297Y-102701074D01*
X117436447Y-102722309D01*
X117437500Y-102743750D01*
X117437500Y-103256250D01*
X117436447Y-103277691D01*
X117433297Y-103298926D01*
X117428081Y-103319750D01*
X117420849Y-103339962D01*
X117411670Y-103359368D01*
X117400634Y-103377781D01*
X117387846Y-103395024D01*
X117373430Y-103410930D01*
X117357524Y-103425346D01*
X117340281Y-103438134D01*
X117321868Y-103449170D01*
X117302462Y-103458349D01*
X117282250Y-103465581D01*
X117261426Y-103470797D01*
X117240191Y-103473947D01*
X117218750Y-103475000D01*
X116781250Y-103475000D01*
X116759809Y-103473947D01*
X116738574Y-103470797D01*
X116717750Y-103465581D01*
X116697538Y-103458349D01*
X116678132Y-103449170D01*
X116659719Y-103438134D01*
X116642476Y-103425346D01*
X116626570Y-103410930D01*
X116612154Y-103395024D01*
X116599366Y-103377781D01*
X116588330Y-103359368D01*
X116579151Y-103339962D01*
X116571919Y-103319750D01*
X116566703Y-103298926D01*
X116563553Y-103277691D01*
X116562500Y-103256250D01*
X116562500Y-102743750D01*
X116563553Y-102722309D01*
X116566703Y-102701074D01*
X116571919Y-102680250D01*
X116579151Y-102660038D01*
X116588330Y-102640632D01*
X116599366Y-102622219D01*
X116612154Y-102604976D01*
X116626570Y-102589070D01*
X116642476Y-102574654D01*
X116659719Y-102561866D01*
X116678132Y-102550830D01*
X116697538Y-102541651D01*
X116717750Y-102534419D01*
X116738574Y-102529203D01*
X116759809Y-102526053D01*
X116781250Y-102525000D01*
X117218750Y-102525000D01*
X117240191Y-102526053D01*
X117240191Y-102526053D01*
G37*
D11*
X117000000Y-103000000D03*
D10*
G36*
X118815191Y-102526053D02*
G01*
X118836426Y-102529203D01*
X118857250Y-102534419D01*
X118877462Y-102541651D01*
X118896868Y-102550830D01*
X118915281Y-102561866D01*
X118932524Y-102574654D01*
X118948430Y-102589070D01*
X118962846Y-102604976D01*
X118975634Y-102622219D01*
X118986670Y-102640632D01*
X118995849Y-102660038D01*
X119003081Y-102680250D01*
X119008297Y-102701074D01*
X119011447Y-102722309D01*
X119012500Y-102743750D01*
X119012500Y-103256250D01*
X119011447Y-103277691D01*
X119008297Y-103298926D01*
X119003081Y-103319750D01*
X118995849Y-103339962D01*
X118986670Y-103359368D01*
X118975634Y-103377781D01*
X118962846Y-103395024D01*
X118948430Y-103410930D01*
X118932524Y-103425346D01*
X118915281Y-103438134D01*
X118896868Y-103449170D01*
X118877462Y-103458349D01*
X118857250Y-103465581D01*
X118836426Y-103470797D01*
X118815191Y-103473947D01*
X118793750Y-103475000D01*
X118356250Y-103475000D01*
X118334809Y-103473947D01*
X118313574Y-103470797D01*
X118292750Y-103465581D01*
X118272538Y-103458349D01*
X118253132Y-103449170D01*
X118234719Y-103438134D01*
X118217476Y-103425346D01*
X118201570Y-103410930D01*
X118187154Y-103395024D01*
X118174366Y-103377781D01*
X118163330Y-103359368D01*
X118154151Y-103339962D01*
X118146919Y-103319750D01*
X118141703Y-103298926D01*
X118138553Y-103277691D01*
X118137500Y-103256250D01*
X118137500Y-102743750D01*
X118138553Y-102722309D01*
X118141703Y-102701074D01*
X118146919Y-102680250D01*
X118154151Y-102660038D01*
X118163330Y-102640632D01*
X118174366Y-102622219D01*
X118187154Y-102604976D01*
X118201570Y-102589070D01*
X118217476Y-102574654D01*
X118234719Y-102561866D01*
X118253132Y-102550830D01*
X118272538Y-102541651D01*
X118292750Y-102534419D01*
X118313574Y-102529203D01*
X118334809Y-102526053D01*
X118356250Y-102525000D01*
X118793750Y-102525000D01*
X118815191Y-102526053D01*
X118815191Y-102526053D01*
G37*
D11*
X118575000Y-103000000D03*
D10*
G36*
X119240191Y-91526053D02*
G01*
X119261426Y-91529203D01*
X119282250Y-91534419D01*
X119302462Y-91541651D01*
X119321868Y-91550830D01*
X119340281Y-91561866D01*
X119357524Y-91574654D01*
X119373430Y-91589070D01*
X119387846Y-91604976D01*
X119400634Y-91622219D01*
X119411670Y-91640632D01*
X119420849Y-91660038D01*
X119428081Y-91680250D01*
X119433297Y-91701074D01*
X119436447Y-91722309D01*
X119437500Y-91743750D01*
X119437500Y-92256250D01*
X119436447Y-92277691D01*
X119433297Y-92298926D01*
X119428081Y-92319750D01*
X119420849Y-92339962D01*
X119411670Y-92359368D01*
X119400634Y-92377781D01*
X119387846Y-92395024D01*
X119373430Y-92410930D01*
X119357524Y-92425346D01*
X119340281Y-92438134D01*
X119321868Y-92449170D01*
X119302462Y-92458349D01*
X119282250Y-92465581D01*
X119261426Y-92470797D01*
X119240191Y-92473947D01*
X119218750Y-92475000D01*
X118781250Y-92475000D01*
X118759809Y-92473947D01*
X118738574Y-92470797D01*
X118717750Y-92465581D01*
X118697538Y-92458349D01*
X118678132Y-92449170D01*
X118659719Y-92438134D01*
X118642476Y-92425346D01*
X118626570Y-92410930D01*
X118612154Y-92395024D01*
X118599366Y-92377781D01*
X118588330Y-92359368D01*
X118579151Y-92339962D01*
X118571919Y-92319750D01*
X118566703Y-92298926D01*
X118563553Y-92277691D01*
X118562500Y-92256250D01*
X118562500Y-91743750D01*
X118563553Y-91722309D01*
X118566703Y-91701074D01*
X118571919Y-91680250D01*
X118579151Y-91660038D01*
X118588330Y-91640632D01*
X118599366Y-91622219D01*
X118612154Y-91604976D01*
X118626570Y-91589070D01*
X118642476Y-91574654D01*
X118659719Y-91561866D01*
X118678132Y-91550830D01*
X118697538Y-91541651D01*
X118717750Y-91534419D01*
X118738574Y-91529203D01*
X118759809Y-91526053D01*
X118781250Y-91525000D01*
X119218750Y-91525000D01*
X119240191Y-91526053D01*
X119240191Y-91526053D01*
G37*
D11*
X119000000Y-92000000D03*
D10*
G36*
X120815191Y-91526053D02*
G01*
X120836426Y-91529203D01*
X120857250Y-91534419D01*
X120877462Y-91541651D01*
X120896868Y-91550830D01*
X120915281Y-91561866D01*
X120932524Y-91574654D01*
X120948430Y-91589070D01*
X120962846Y-91604976D01*
X120975634Y-91622219D01*
X120986670Y-91640632D01*
X120995849Y-91660038D01*
X121003081Y-91680250D01*
X121008297Y-91701074D01*
X121011447Y-91722309D01*
X121012500Y-91743750D01*
X121012500Y-92256250D01*
X121011447Y-92277691D01*
X121008297Y-92298926D01*
X121003081Y-92319750D01*
X120995849Y-92339962D01*
X120986670Y-92359368D01*
X120975634Y-92377781D01*
X120962846Y-92395024D01*
X120948430Y-92410930D01*
X120932524Y-92425346D01*
X120915281Y-92438134D01*
X120896868Y-92449170D01*
X120877462Y-92458349D01*
X120857250Y-92465581D01*
X120836426Y-92470797D01*
X120815191Y-92473947D01*
X120793750Y-92475000D01*
X120356250Y-92475000D01*
X120334809Y-92473947D01*
X120313574Y-92470797D01*
X120292750Y-92465581D01*
X120272538Y-92458349D01*
X120253132Y-92449170D01*
X120234719Y-92438134D01*
X120217476Y-92425346D01*
X120201570Y-92410930D01*
X120187154Y-92395024D01*
X120174366Y-92377781D01*
X120163330Y-92359368D01*
X120154151Y-92339962D01*
X120146919Y-92319750D01*
X120141703Y-92298926D01*
X120138553Y-92277691D01*
X120137500Y-92256250D01*
X120137500Y-91743750D01*
X120138553Y-91722309D01*
X120141703Y-91701074D01*
X120146919Y-91680250D01*
X120154151Y-91660038D01*
X120163330Y-91640632D01*
X120174366Y-91622219D01*
X120187154Y-91604976D01*
X120201570Y-91589070D01*
X120217476Y-91574654D01*
X120234719Y-91561866D01*
X120253132Y-91550830D01*
X120272538Y-91541651D01*
X120292750Y-91534419D01*
X120313574Y-91529203D01*
X120334809Y-91526053D01*
X120356250Y-91525000D01*
X120793750Y-91525000D01*
X120815191Y-91526053D01*
X120815191Y-91526053D01*
G37*
D11*
X120575000Y-92000000D03*
D10*
G36*
X117240191Y-83526053D02*
G01*
X117261426Y-83529203D01*
X117282250Y-83534419D01*
X117302462Y-83541651D01*
X117321868Y-83550830D01*
X117340281Y-83561866D01*
X117357524Y-83574654D01*
X117373430Y-83589070D01*
X117387846Y-83604976D01*
X117400634Y-83622219D01*
X117411670Y-83640632D01*
X117420849Y-83660038D01*
X117428081Y-83680250D01*
X117433297Y-83701074D01*
X117436447Y-83722309D01*
X117437500Y-83743750D01*
X117437500Y-84256250D01*
X117436447Y-84277691D01*
X117433297Y-84298926D01*
X117428081Y-84319750D01*
X117420849Y-84339962D01*
X117411670Y-84359368D01*
X117400634Y-84377781D01*
X117387846Y-84395024D01*
X117373430Y-84410930D01*
X117357524Y-84425346D01*
X117340281Y-84438134D01*
X117321868Y-84449170D01*
X117302462Y-84458349D01*
X117282250Y-84465581D01*
X117261426Y-84470797D01*
X117240191Y-84473947D01*
X117218750Y-84475000D01*
X116781250Y-84475000D01*
X116759809Y-84473947D01*
X116738574Y-84470797D01*
X116717750Y-84465581D01*
X116697538Y-84458349D01*
X116678132Y-84449170D01*
X116659719Y-84438134D01*
X116642476Y-84425346D01*
X116626570Y-84410930D01*
X116612154Y-84395024D01*
X116599366Y-84377781D01*
X116588330Y-84359368D01*
X116579151Y-84339962D01*
X116571919Y-84319750D01*
X116566703Y-84298926D01*
X116563553Y-84277691D01*
X116562500Y-84256250D01*
X116562500Y-83743750D01*
X116563553Y-83722309D01*
X116566703Y-83701074D01*
X116571919Y-83680250D01*
X116579151Y-83660038D01*
X116588330Y-83640632D01*
X116599366Y-83622219D01*
X116612154Y-83604976D01*
X116626570Y-83589070D01*
X116642476Y-83574654D01*
X116659719Y-83561866D01*
X116678132Y-83550830D01*
X116697538Y-83541651D01*
X116717750Y-83534419D01*
X116738574Y-83529203D01*
X116759809Y-83526053D01*
X116781250Y-83525000D01*
X117218750Y-83525000D01*
X117240191Y-83526053D01*
X117240191Y-83526053D01*
G37*
D11*
X117000000Y-84000000D03*
D10*
G36*
X118815191Y-83526053D02*
G01*
X118836426Y-83529203D01*
X118857250Y-83534419D01*
X118877462Y-83541651D01*
X118896868Y-83550830D01*
X118915281Y-83561866D01*
X118932524Y-83574654D01*
X118948430Y-83589070D01*
X118962846Y-83604976D01*
X118975634Y-83622219D01*
X118986670Y-83640632D01*
X118995849Y-83660038D01*
X119003081Y-83680250D01*
X119008297Y-83701074D01*
X119011447Y-83722309D01*
X119012500Y-83743750D01*
X119012500Y-84256250D01*
X119011447Y-84277691D01*
X119008297Y-84298926D01*
X119003081Y-84319750D01*
X118995849Y-84339962D01*
X118986670Y-84359368D01*
X118975634Y-84377781D01*
X118962846Y-84395024D01*
X118948430Y-84410930D01*
X118932524Y-84425346D01*
X118915281Y-84438134D01*
X118896868Y-84449170D01*
X118877462Y-84458349D01*
X118857250Y-84465581D01*
X118836426Y-84470797D01*
X118815191Y-84473947D01*
X118793750Y-84475000D01*
X118356250Y-84475000D01*
X118334809Y-84473947D01*
X118313574Y-84470797D01*
X118292750Y-84465581D01*
X118272538Y-84458349D01*
X118253132Y-84449170D01*
X118234719Y-84438134D01*
X118217476Y-84425346D01*
X118201570Y-84410930D01*
X118187154Y-84395024D01*
X118174366Y-84377781D01*
X118163330Y-84359368D01*
X118154151Y-84339962D01*
X118146919Y-84319750D01*
X118141703Y-84298926D01*
X118138553Y-84277691D01*
X118137500Y-84256250D01*
X118137500Y-83743750D01*
X118138553Y-83722309D01*
X118141703Y-83701074D01*
X118146919Y-83680250D01*
X118154151Y-83660038D01*
X118163330Y-83640632D01*
X118174366Y-83622219D01*
X118187154Y-83604976D01*
X118201570Y-83589070D01*
X118217476Y-83574654D01*
X118234719Y-83561866D01*
X118253132Y-83550830D01*
X118272538Y-83541651D01*
X118292750Y-83534419D01*
X118313574Y-83529203D01*
X118334809Y-83526053D01*
X118356250Y-83525000D01*
X118793750Y-83525000D01*
X118815191Y-83526053D01*
X118815191Y-83526053D01*
G37*
D11*
X118575000Y-84000000D03*
D10*
G36*
X119240191Y-72526053D02*
G01*
X119261426Y-72529203D01*
X119282250Y-72534419D01*
X119302462Y-72541651D01*
X119321868Y-72550830D01*
X119340281Y-72561866D01*
X119357524Y-72574654D01*
X119373430Y-72589070D01*
X119387846Y-72604976D01*
X119400634Y-72622219D01*
X119411670Y-72640632D01*
X119420849Y-72660038D01*
X119428081Y-72680250D01*
X119433297Y-72701074D01*
X119436447Y-72722309D01*
X119437500Y-72743750D01*
X119437500Y-73256250D01*
X119436447Y-73277691D01*
X119433297Y-73298926D01*
X119428081Y-73319750D01*
X119420849Y-73339962D01*
X119411670Y-73359368D01*
X119400634Y-73377781D01*
X119387846Y-73395024D01*
X119373430Y-73410930D01*
X119357524Y-73425346D01*
X119340281Y-73438134D01*
X119321868Y-73449170D01*
X119302462Y-73458349D01*
X119282250Y-73465581D01*
X119261426Y-73470797D01*
X119240191Y-73473947D01*
X119218750Y-73475000D01*
X118781250Y-73475000D01*
X118759809Y-73473947D01*
X118738574Y-73470797D01*
X118717750Y-73465581D01*
X118697538Y-73458349D01*
X118678132Y-73449170D01*
X118659719Y-73438134D01*
X118642476Y-73425346D01*
X118626570Y-73410930D01*
X118612154Y-73395024D01*
X118599366Y-73377781D01*
X118588330Y-73359368D01*
X118579151Y-73339962D01*
X118571919Y-73319750D01*
X118566703Y-73298926D01*
X118563553Y-73277691D01*
X118562500Y-73256250D01*
X118562500Y-72743750D01*
X118563553Y-72722309D01*
X118566703Y-72701074D01*
X118571919Y-72680250D01*
X118579151Y-72660038D01*
X118588330Y-72640632D01*
X118599366Y-72622219D01*
X118612154Y-72604976D01*
X118626570Y-72589070D01*
X118642476Y-72574654D01*
X118659719Y-72561866D01*
X118678132Y-72550830D01*
X118697538Y-72541651D01*
X118717750Y-72534419D01*
X118738574Y-72529203D01*
X118759809Y-72526053D01*
X118781250Y-72525000D01*
X119218750Y-72525000D01*
X119240191Y-72526053D01*
X119240191Y-72526053D01*
G37*
D11*
X119000000Y-73000000D03*
D10*
G36*
X120815191Y-72526053D02*
G01*
X120836426Y-72529203D01*
X120857250Y-72534419D01*
X120877462Y-72541651D01*
X120896868Y-72550830D01*
X120915281Y-72561866D01*
X120932524Y-72574654D01*
X120948430Y-72589070D01*
X120962846Y-72604976D01*
X120975634Y-72622219D01*
X120986670Y-72640632D01*
X120995849Y-72660038D01*
X121003081Y-72680250D01*
X121008297Y-72701074D01*
X121011447Y-72722309D01*
X121012500Y-72743750D01*
X121012500Y-73256250D01*
X121011447Y-73277691D01*
X121008297Y-73298926D01*
X121003081Y-73319750D01*
X120995849Y-73339962D01*
X120986670Y-73359368D01*
X120975634Y-73377781D01*
X120962846Y-73395024D01*
X120948430Y-73410930D01*
X120932524Y-73425346D01*
X120915281Y-73438134D01*
X120896868Y-73449170D01*
X120877462Y-73458349D01*
X120857250Y-73465581D01*
X120836426Y-73470797D01*
X120815191Y-73473947D01*
X120793750Y-73475000D01*
X120356250Y-73475000D01*
X120334809Y-73473947D01*
X120313574Y-73470797D01*
X120292750Y-73465581D01*
X120272538Y-73458349D01*
X120253132Y-73449170D01*
X120234719Y-73438134D01*
X120217476Y-73425346D01*
X120201570Y-73410930D01*
X120187154Y-73395024D01*
X120174366Y-73377781D01*
X120163330Y-73359368D01*
X120154151Y-73339962D01*
X120146919Y-73319750D01*
X120141703Y-73298926D01*
X120138553Y-73277691D01*
X120137500Y-73256250D01*
X120137500Y-72743750D01*
X120138553Y-72722309D01*
X120141703Y-72701074D01*
X120146919Y-72680250D01*
X120154151Y-72660038D01*
X120163330Y-72640632D01*
X120174366Y-72622219D01*
X120187154Y-72604976D01*
X120201570Y-72589070D01*
X120217476Y-72574654D01*
X120234719Y-72561866D01*
X120253132Y-72550830D01*
X120272538Y-72541651D01*
X120292750Y-72534419D01*
X120313574Y-72529203D01*
X120334809Y-72526053D01*
X120356250Y-72525000D01*
X120793750Y-72525000D01*
X120815191Y-72526053D01*
X120815191Y-72526053D01*
G37*
D11*
X120575000Y-73000000D03*
D10*
G36*
X117665191Y-64526053D02*
G01*
X117686426Y-64529203D01*
X117707250Y-64534419D01*
X117727462Y-64541651D01*
X117746868Y-64550830D01*
X117765281Y-64561866D01*
X117782524Y-64574654D01*
X117798430Y-64589070D01*
X117812846Y-64604976D01*
X117825634Y-64622219D01*
X117836670Y-64640632D01*
X117845849Y-64660038D01*
X117853081Y-64680250D01*
X117858297Y-64701074D01*
X117861447Y-64722309D01*
X117862500Y-64743750D01*
X117862500Y-65256250D01*
X117861447Y-65277691D01*
X117858297Y-65298926D01*
X117853081Y-65319750D01*
X117845849Y-65339962D01*
X117836670Y-65359368D01*
X117825634Y-65377781D01*
X117812846Y-65395024D01*
X117798430Y-65410930D01*
X117782524Y-65425346D01*
X117765281Y-65438134D01*
X117746868Y-65449170D01*
X117727462Y-65458349D01*
X117707250Y-65465581D01*
X117686426Y-65470797D01*
X117665191Y-65473947D01*
X117643750Y-65475000D01*
X117206250Y-65475000D01*
X117184809Y-65473947D01*
X117163574Y-65470797D01*
X117142750Y-65465581D01*
X117122538Y-65458349D01*
X117103132Y-65449170D01*
X117084719Y-65438134D01*
X117067476Y-65425346D01*
X117051570Y-65410930D01*
X117037154Y-65395024D01*
X117024366Y-65377781D01*
X117013330Y-65359368D01*
X117004151Y-65339962D01*
X116996919Y-65319750D01*
X116991703Y-65298926D01*
X116988553Y-65277691D01*
X116987500Y-65256250D01*
X116987500Y-64743750D01*
X116988553Y-64722309D01*
X116991703Y-64701074D01*
X116996919Y-64680250D01*
X117004151Y-64660038D01*
X117013330Y-64640632D01*
X117024366Y-64622219D01*
X117037154Y-64604976D01*
X117051570Y-64589070D01*
X117067476Y-64574654D01*
X117084719Y-64561866D01*
X117103132Y-64550830D01*
X117122538Y-64541651D01*
X117142750Y-64534419D01*
X117163574Y-64529203D01*
X117184809Y-64526053D01*
X117206250Y-64525000D01*
X117643750Y-64525000D01*
X117665191Y-64526053D01*
X117665191Y-64526053D01*
G37*
D11*
X117425000Y-65000000D03*
D10*
G36*
X119240191Y-64526053D02*
G01*
X119261426Y-64529203D01*
X119282250Y-64534419D01*
X119302462Y-64541651D01*
X119321868Y-64550830D01*
X119340281Y-64561866D01*
X119357524Y-64574654D01*
X119373430Y-64589070D01*
X119387846Y-64604976D01*
X119400634Y-64622219D01*
X119411670Y-64640632D01*
X119420849Y-64660038D01*
X119428081Y-64680250D01*
X119433297Y-64701074D01*
X119436447Y-64722309D01*
X119437500Y-64743750D01*
X119437500Y-65256250D01*
X119436447Y-65277691D01*
X119433297Y-65298926D01*
X119428081Y-65319750D01*
X119420849Y-65339962D01*
X119411670Y-65359368D01*
X119400634Y-65377781D01*
X119387846Y-65395024D01*
X119373430Y-65410930D01*
X119357524Y-65425346D01*
X119340281Y-65438134D01*
X119321868Y-65449170D01*
X119302462Y-65458349D01*
X119282250Y-65465581D01*
X119261426Y-65470797D01*
X119240191Y-65473947D01*
X119218750Y-65475000D01*
X118781250Y-65475000D01*
X118759809Y-65473947D01*
X118738574Y-65470797D01*
X118717750Y-65465581D01*
X118697538Y-65458349D01*
X118678132Y-65449170D01*
X118659719Y-65438134D01*
X118642476Y-65425346D01*
X118626570Y-65410930D01*
X118612154Y-65395024D01*
X118599366Y-65377781D01*
X118588330Y-65359368D01*
X118579151Y-65339962D01*
X118571919Y-65319750D01*
X118566703Y-65298926D01*
X118563553Y-65277691D01*
X118562500Y-65256250D01*
X118562500Y-64743750D01*
X118563553Y-64722309D01*
X118566703Y-64701074D01*
X118571919Y-64680250D01*
X118579151Y-64660038D01*
X118588330Y-64640632D01*
X118599366Y-64622219D01*
X118612154Y-64604976D01*
X118626570Y-64589070D01*
X118642476Y-64574654D01*
X118659719Y-64561866D01*
X118678132Y-64550830D01*
X118697538Y-64541651D01*
X118717750Y-64534419D01*
X118738574Y-64529203D01*
X118759809Y-64526053D01*
X118781250Y-64525000D01*
X119218750Y-64525000D01*
X119240191Y-64526053D01*
X119240191Y-64526053D01*
G37*
D11*
X119000000Y-65000000D03*
D10*
G36*
X119240191Y-53526053D02*
G01*
X119261426Y-53529203D01*
X119282250Y-53534419D01*
X119302462Y-53541651D01*
X119321868Y-53550830D01*
X119340281Y-53561866D01*
X119357524Y-53574654D01*
X119373430Y-53589070D01*
X119387846Y-53604976D01*
X119400634Y-53622219D01*
X119411670Y-53640632D01*
X119420849Y-53660038D01*
X119428081Y-53680250D01*
X119433297Y-53701074D01*
X119436447Y-53722309D01*
X119437500Y-53743750D01*
X119437500Y-54256250D01*
X119436447Y-54277691D01*
X119433297Y-54298926D01*
X119428081Y-54319750D01*
X119420849Y-54339962D01*
X119411670Y-54359368D01*
X119400634Y-54377781D01*
X119387846Y-54395024D01*
X119373430Y-54410930D01*
X119357524Y-54425346D01*
X119340281Y-54438134D01*
X119321868Y-54449170D01*
X119302462Y-54458349D01*
X119282250Y-54465581D01*
X119261426Y-54470797D01*
X119240191Y-54473947D01*
X119218750Y-54475000D01*
X118781250Y-54475000D01*
X118759809Y-54473947D01*
X118738574Y-54470797D01*
X118717750Y-54465581D01*
X118697538Y-54458349D01*
X118678132Y-54449170D01*
X118659719Y-54438134D01*
X118642476Y-54425346D01*
X118626570Y-54410930D01*
X118612154Y-54395024D01*
X118599366Y-54377781D01*
X118588330Y-54359368D01*
X118579151Y-54339962D01*
X118571919Y-54319750D01*
X118566703Y-54298926D01*
X118563553Y-54277691D01*
X118562500Y-54256250D01*
X118562500Y-53743750D01*
X118563553Y-53722309D01*
X118566703Y-53701074D01*
X118571919Y-53680250D01*
X118579151Y-53660038D01*
X118588330Y-53640632D01*
X118599366Y-53622219D01*
X118612154Y-53604976D01*
X118626570Y-53589070D01*
X118642476Y-53574654D01*
X118659719Y-53561866D01*
X118678132Y-53550830D01*
X118697538Y-53541651D01*
X118717750Y-53534419D01*
X118738574Y-53529203D01*
X118759809Y-53526053D01*
X118781250Y-53525000D01*
X119218750Y-53525000D01*
X119240191Y-53526053D01*
X119240191Y-53526053D01*
G37*
D11*
X119000000Y-54000000D03*
D10*
G36*
X120815191Y-53526053D02*
G01*
X120836426Y-53529203D01*
X120857250Y-53534419D01*
X120877462Y-53541651D01*
X120896868Y-53550830D01*
X120915281Y-53561866D01*
X120932524Y-53574654D01*
X120948430Y-53589070D01*
X120962846Y-53604976D01*
X120975634Y-53622219D01*
X120986670Y-53640632D01*
X120995849Y-53660038D01*
X121003081Y-53680250D01*
X121008297Y-53701074D01*
X121011447Y-53722309D01*
X121012500Y-53743750D01*
X121012500Y-54256250D01*
X121011447Y-54277691D01*
X121008297Y-54298926D01*
X121003081Y-54319750D01*
X120995849Y-54339962D01*
X120986670Y-54359368D01*
X120975634Y-54377781D01*
X120962846Y-54395024D01*
X120948430Y-54410930D01*
X120932524Y-54425346D01*
X120915281Y-54438134D01*
X120896868Y-54449170D01*
X120877462Y-54458349D01*
X120857250Y-54465581D01*
X120836426Y-54470797D01*
X120815191Y-54473947D01*
X120793750Y-54475000D01*
X120356250Y-54475000D01*
X120334809Y-54473947D01*
X120313574Y-54470797D01*
X120292750Y-54465581D01*
X120272538Y-54458349D01*
X120253132Y-54449170D01*
X120234719Y-54438134D01*
X120217476Y-54425346D01*
X120201570Y-54410930D01*
X120187154Y-54395024D01*
X120174366Y-54377781D01*
X120163330Y-54359368D01*
X120154151Y-54339962D01*
X120146919Y-54319750D01*
X120141703Y-54298926D01*
X120138553Y-54277691D01*
X120137500Y-54256250D01*
X120137500Y-53743750D01*
X120138553Y-53722309D01*
X120141703Y-53701074D01*
X120146919Y-53680250D01*
X120154151Y-53660038D01*
X120163330Y-53640632D01*
X120174366Y-53622219D01*
X120187154Y-53604976D01*
X120201570Y-53589070D01*
X120217476Y-53574654D01*
X120234719Y-53561866D01*
X120253132Y-53550830D01*
X120272538Y-53541651D01*
X120292750Y-53534419D01*
X120313574Y-53529203D01*
X120334809Y-53526053D01*
X120356250Y-53525000D01*
X120793750Y-53525000D01*
X120815191Y-53526053D01*
X120815191Y-53526053D01*
G37*
D11*
X120575000Y-54000000D03*
D12*
X124000000Y-123000000D03*
X122000000Y-123950000D03*
X122000000Y-122050000D03*
X124000000Y-104000000D03*
X122000000Y-104950000D03*
X122000000Y-103050000D03*
X124000000Y-85000000D03*
X122000000Y-85950000D03*
X122000000Y-84050000D03*
X124000000Y-66000000D03*
X122000000Y-66950000D03*
X122000000Y-65050000D03*
D10*
G36*
X119277691Y-114563553D02*
G01*
X119298926Y-114566703D01*
X119319750Y-114571919D01*
X119339962Y-114579151D01*
X119359368Y-114588330D01*
X119377781Y-114599366D01*
X119395024Y-114612154D01*
X119410930Y-114626570D01*
X119425346Y-114642476D01*
X119438134Y-114659719D01*
X119449170Y-114678132D01*
X119458349Y-114697538D01*
X119465581Y-114717750D01*
X119470797Y-114738574D01*
X119473947Y-114759809D01*
X119475000Y-114781250D01*
X119475000Y-115218750D01*
X119473947Y-115240191D01*
X119470797Y-115261426D01*
X119465581Y-115282250D01*
X119458349Y-115302462D01*
X119449170Y-115321868D01*
X119438134Y-115340281D01*
X119425346Y-115357524D01*
X119410930Y-115373430D01*
X119395024Y-115387846D01*
X119377781Y-115400634D01*
X119359368Y-115411670D01*
X119339962Y-115420849D01*
X119319750Y-115428081D01*
X119298926Y-115433297D01*
X119277691Y-115436447D01*
X119256250Y-115437500D01*
X118743750Y-115437500D01*
X118722309Y-115436447D01*
X118701074Y-115433297D01*
X118680250Y-115428081D01*
X118660038Y-115420849D01*
X118640632Y-115411670D01*
X118622219Y-115400634D01*
X118604976Y-115387846D01*
X118589070Y-115373430D01*
X118574654Y-115357524D01*
X118561866Y-115340281D01*
X118550830Y-115321868D01*
X118541651Y-115302462D01*
X118534419Y-115282250D01*
X118529203Y-115261426D01*
X118526053Y-115240191D01*
X118525000Y-115218750D01*
X118525000Y-114781250D01*
X118526053Y-114759809D01*
X118529203Y-114738574D01*
X118534419Y-114717750D01*
X118541651Y-114697538D01*
X118550830Y-114678132D01*
X118561866Y-114659719D01*
X118574654Y-114642476D01*
X118589070Y-114626570D01*
X118604976Y-114612154D01*
X118622219Y-114599366D01*
X118640632Y-114588330D01*
X118660038Y-114579151D01*
X118680250Y-114571919D01*
X118701074Y-114566703D01*
X118722309Y-114563553D01*
X118743750Y-114562500D01*
X119256250Y-114562500D01*
X119277691Y-114563553D01*
X119277691Y-114563553D01*
G37*
D11*
X119000000Y-115000000D03*
D10*
G36*
X119277691Y-116138553D02*
G01*
X119298926Y-116141703D01*
X119319750Y-116146919D01*
X119339962Y-116154151D01*
X119359368Y-116163330D01*
X119377781Y-116174366D01*
X119395024Y-116187154D01*
X119410930Y-116201570D01*
X119425346Y-116217476D01*
X119438134Y-116234719D01*
X119449170Y-116253132D01*
X119458349Y-116272538D01*
X119465581Y-116292750D01*
X119470797Y-116313574D01*
X119473947Y-116334809D01*
X119475000Y-116356250D01*
X119475000Y-116793750D01*
X119473947Y-116815191D01*
X119470797Y-116836426D01*
X119465581Y-116857250D01*
X119458349Y-116877462D01*
X119449170Y-116896868D01*
X119438134Y-116915281D01*
X119425346Y-116932524D01*
X119410930Y-116948430D01*
X119395024Y-116962846D01*
X119377781Y-116975634D01*
X119359368Y-116986670D01*
X119339962Y-116995849D01*
X119319750Y-117003081D01*
X119298926Y-117008297D01*
X119277691Y-117011447D01*
X119256250Y-117012500D01*
X118743750Y-117012500D01*
X118722309Y-117011447D01*
X118701074Y-117008297D01*
X118680250Y-117003081D01*
X118660038Y-116995849D01*
X118640632Y-116986670D01*
X118622219Y-116975634D01*
X118604976Y-116962846D01*
X118589070Y-116948430D01*
X118574654Y-116932524D01*
X118561866Y-116915281D01*
X118550830Y-116896868D01*
X118541651Y-116877462D01*
X118534419Y-116857250D01*
X118529203Y-116836426D01*
X118526053Y-116815191D01*
X118525000Y-116793750D01*
X118525000Y-116356250D01*
X118526053Y-116334809D01*
X118529203Y-116313574D01*
X118534419Y-116292750D01*
X118541651Y-116272538D01*
X118550830Y-116253132D01*
X118561866Y-116234719D01*
X118574654Y-116217476D01*
X118589070Y-116201570D01*
X118604976Y-116187154D01*
X118622219Y-116174366D01*
X118640632Y-116163330D01*
X118660038Y-116154151D01*
X118680250Y-116146919D01*
X118701074Y-116141703D01*
X118722309Y-116138553D01*
X118743750Y-116137500D01*
X119256250Y-116137500D01*
X119277691Y-116138553D01*
X119277691Y-116138553D01*
G37*
D11*
X119000000Y-116575000D03*
D10*
G36*
X119277691Y-95563553D02*
G01*
X119298926Y-95566703D01*
X119319750Y-95571919D01*
X119339962Y-95579151D01*
X119359368Y-95588330D01*
X119377781Y-95599366D01*
X119395024Y-95612154D01*
X119410930Y-95626570D01*
X119425346Y-95642476D01*
X119438134Y-95659719D01*
X119449170Y-95678132D01*
X119458349Y-95697538D01*
X119465581Y-95717750D01*
X119470797Y-95738574D01*
X119473947Y-95759809D01*
X119475000Y-95781250D01*
X119475000Y-96218750D01*
X119473947Y-96240191D01*
X119470797Y-96261426D01*
X119465581Y-96282250D01*
X119458349Y-96302462D01*
X119449170Y-96321868D01*
X119438134Y-96340281D01*
X119425346Y-96357524D01*
X119410930Y-96373430D01*
X119395024Y-96387846D01*
X119377781Y-96400634D01*
X119359368Y-96411670D01*
X119339962Y-96420849D01*
X119319750Y-96428081D01*
X119298926Y-96433297D01*
X119277691Y-96436447D01*
X119256250Y-96437500D01*
X118743750Y-96437500D01*
X118722309Y-96436447D01*
X118701074Y-96433297D01*
X118680250Y-96428081D01*
X118660038Y-96420849D01*
X118640632Y-96411670D01*
X118622219Y-96400634D01*
X118604976Y-96387846D01*
X118589070Y-96373430D01*
X118574654Y-96357524D01*
X118561866Y-96340281D01*
X118550830Y-96321868D01*
X118541651Y-96302462D01*
X118534419Y-96282250D01*
X118529203Y-96261426D01*
X118526053Y-96240191D01*
X118525000Y-96218750D01*
X118525000Y-95781250D01*
X118526053Y-95759809D01*
X118529203Y-95738574D01*
X118534419Y-95717750D01*
X118541651Y-95697538D01*
X118550830Y-95678132D01*
X118561866Y-95659719D01*
X118574654Y-95642476D01*
X118589070Y-95626570D01*
X118604976Y-95612154D01*
X118622219Y-95599366D01*
X118640632Y-95588330D01*
X118660038Y-95579151D01*
X118680250Y-95571919D01*
X118701074Y-95566703D01*
X118722309Y-95563553D01*
X118743750Y-95562500D01*
X119256250Y-95562500D01*
X119277691Y-95563553D01*
X119277691Y-95563553D01*
G37*
D11*
X119000000Y-96000000D03*
D10*
G36*
X119277691Y-97138553D02*
G01*
X119298926Y-97141703D01*
X119319750Y-97146919D01*
X119339962Y-97154151D01*
X119359368Y-97163330D01*
X119377781Y-97174366D01*
X119395024Y-97187154D01*
X119410930Y-97201570D01*
X119425346Y-97217476D01*
X119438134Y-97234719D01*
X119449170Y-97253132D01*
X119458349Y-97272538D01*
X119465581Y-97292750D01*
X119470797Y-97313574D01*
X119473947Y-97334809D01*
X119475000Y-97356250D01*
X119475000Y-97793750D01*
X119473947Y-97815191D01*
X119470797Y-97836426D01*
X119465581Y-97857250D01*
X119458349Y-97877462D01*
X119449170Y-97896868D01*
X119438134Y-97915281D01*
X119425346Y-97932524D01*
X119410930Y-97948430D01*
X119395024Y-97962846D01*
X119377781Y-97975634D01*
X119359368Y-97986670D01*
X119339962Y-97995849D01*
X119319750Y-98003081D01*
X119298926Y-98008297D01*
X119277691Y-98011447D01*
X119256250Y-98012500D01*
X118743750Y-98012500D01*
X118722309Y-98011447D01*
X118701074Y-98008297D01*
X118680250Y-98003081D01*
X118660038Y-97995849D01*
X118640632Y-97986670D01*
X118622219Y-97975634D01*
X118604976Y-97962846D01*
X118589070Y-97948430D01*
X118574654Y-97932524D01*
X118561866Y-97915281D01*
X118550830Y-97896868D01*
X118541651Y-97877462D01*
X118534419Y-97857250D01*
X118529203Y-97836426D01*
X118526053Y-97815191D01*
X118525000Y-97793750D01*
X118525000Y-97356250D01*
X118526053Y-97334809D01*
X118529203Y-97313574D01*
X118534419Y-97292750D01*
X118541651Y-97272538D01*
X118550830Y-97253132D01*
X118561866Y-97234719D01*
X118574654Y-97217476D01*
X118589070Y-97201570D01*
X118604976Y-97187154D01*
X118622219Y-97174366D01*
X118640632Y-97163330D01*
X118660038Y-97154151D01*
X118680250Y-97146919D01*
X118701074Y-97141703D01*
X118722309Y-97138553D01*
X118743750Y-97137500D01*
X119256250Y-97137500D01*
X119277691Y-97138553D01*
X119277691Y-97138553D01*
G37*
D11*
X119000000Y-97575000D03*
D10*
G36*
X119277691Y-75988553D02*
G01*
X119298926Y-75991703D01*
X119319750Y-75996919D01*
X119339962Y-76004151D01*
X119359368Y-76013330D01*
X119377781Y-76024366D01*
X119395024Y-76037154D01*
X119410930Y-76051570D01*
X119425346Y-76067476D01*
X119438134Y-76084719D01*
X119449170Y-76103132D01*
X119458349Y-76122538D01*
X119465581Y-76142750D01*
X119470797Y-76163574D01*
X119473947Y-76184809D01*
X119475000Y-76206250D01*
X119475000Y-76643750D01*
X119473947Y-76665191D01*
X119470797Y-76686426D01*
X119465581Y-76707250D01*
X119458349Y-76727462D01*
X119449170Y-76746868D01*
X119438134Y-76765281D01*
X119425346Y-76782524D01*
X119410930Y-76798430D01*
X119395024Y-76812846D01*
X119377781Y-76825634D01*
X119359368Y-76836670D01*
X119339962Y-76845849D01*
X119319750Y-76853081D01*
X119298926Y-76858297D01*
X119277691Y-76861447D01*
X119256250Y-76862500D01*
X118743750Y-76862500D01*
X118722309Y-76861447D01*
X118701074Y-76858297D01*
X118680250Y-76853081D01*
X118660038Y-76845849D01*
X118640632Y-76836670D01*
X118622219Y-76825634D01*
X118604976Y-76812846D01*
X118589070Y-76798430D01*
X118574654Y-76782524D01*
X118561866Y-76765281D01*
X118550830Y-76746868D01*
X118541651Y-76727462D01*
X118534419Y-76707250D01*
X118529203Y-76686426D01*
X118526053Y-76665191D01*
X118525000Y-76643750D01*
X118525000Y-76206250D01*
X118526053Y-76184809D01*
X118529203Y-76163574D01*
X118534419Y-76142750D01*
X118541651Y-76122538D01*
X118550830Y-76103132D01*
X118561866Y-76084719D01*
X118574654Y-76067476D01*
X118589070Y-76051570D01*
X118604976Y-76037154D01*
X118622219Y-76024366D01*
X118640632Y-76013330D01*
X118660038Y-76004151D01*
X118680250Y-75996919D01*
X118701074Y-75991703D01*
X118722309Y-75988553D01*
X118743750Y-75987500D01*
X119256250Y-75987500D01*
X119277691Y-75988553D01*
X119277691Y-75988553D01*
G37*
D11*
X119000000Y-76425000D03*
D10*
G36*
X119277691Y-77563553D02*
G01*
X119298926Y-77566703D01*
X119319750Y-77571919D01*
X119339962Y-77579151D01*
X119359368Y-77588330D01*
X119377781Y-77599366D01*
X119395024Y-77612154D01*
X119410930Y-77626570D01*
X119425346Y-77642476D01*
X119438134Y-77659719D01*
X119449170Y-77678132D01*
X119458349Y-77697538D01*
X119465581Y-77717750D01*
X119470797Y-77738574D01*
X119473947Y-77759809D01*
X119475000Y-77781250D01*
X119475000Y-78218750D01*
X119473947Y-78240191D01*
X119470797Y-78261426D01*
X119465581Y-78282250D01*
X119458349Y-78302462D01*
X119449170Y-78321868D01*
X119438134Y-78340281D01*
X119425346Y-78357524D01*
X119410930Y-78373430D01*
X119395024Y-78387846D01*
X119377781Y-78400634D01*
X119359368Y-78411670D01*
X119339962Y-78420849D01*
X119319750Y-78428081D01*
X119298926Y-78433297D01*
X119277691Y-78436447D01*
X119256250Y-78437500D01*
X118743750Y-78437500D01*
X118722309Y-78436447D01*
X118701074Y-78433297D01*
X118680250Y-78428081D01*
X118660038Y-78420849D01*
X118640632Y-78411670D01*
X118622219Y-78400634D01*
X118604976Y-78387846D01*
X118589070Y-78373430D01*
X118574654Y-78357524D01*
X118561866Y-78340281D01*
X118550830Y-78321868D01*
X118541651Y-78302462D01*
X118534419Y-78282250D01*
X118529203Y-78261426D01*
X118526053Y-78240191D01*
X118525000Y-78218750D01*
X118525000Y-77781250D01*
X118526053Y-77759809D01*
X118529203Y-77738574D01*
X118534419Y-77717750D01*
X118541651Y-77697538D01*
X118550830Y-77678132D01*
X118561866Y-77659719D01*
X118574654Y-77642476D01*
X118589070Y-77626570D01*
X118604976Y-77612154D01*
X118622219Y-77599366D01*
X118640632Y-77588330D01*
X118660038Y-77579151D01*
X118680250Y-77571919D01*
X118701074Y-77566703D01*
X118722309Y-77563553D01*
X118743750Y-77562500D01*
X119256250Y-77562500D01*
X119277691Y-77563553D01*
X119277691Y-77563553D01*
G37*
D11*
X119000000Y-78000000D03*
D10*
G36*
X119277691Y-57063553D02*
G01*
X119298926Y-57066703D01*
X119319750Y-57071919D01*
X119339962Y-57079151D01*
X119359368Y-57088330D01*
X119377781Y-57099366D01*
X119395024Y-57112154D01*
X119410930Y-57126570D01*
X119425346Y-57142476D01*
X119438134Y-57159719D01*
X119449170Y-57178132D01*
X119458349Y-57197538D01*
X119465581Y-57217750D01*
X119470797Y-57238574D01*
X119473947Y-57259809D01*
X119475000Y-57281250D01*
X119475000Y-57718750D01*
X119473947Y-57740191D01*
X119470797Y-57761426D01*
X119465581Y-57782250D01*
X119458349Y-57802462D01*
X119449170Y-57821868D01*
X119438134Y-57840281D01*
X119425346Y-57857524D01*
X119410930Y-57873430D01*
X119395024Y-57887846D01*
X119377781Y-57900634D01*
X119359368Y-57911670D01*
X119339962Y-57920849D01*
X119319750Y-57928081D01*
X119298926Y-57933297D01*
X119277691Y-57936447D01*
X119256250Y-57937500D01*
X118743750Y-57937500D01*
X118722309Y-57936447D01*
X118701074Y-57933297D01*
X118680250Y-57928081D01*
X118660038Y-57920849D01*
X118640632Y-57911670D01*
X118622219Y-57900634D01*
X118604976Y-57887846D01*
X118589070Y-57873430D01*
X118574654Y-57857524D01*
X118561866Y-57840281D01*
X118550830Y-57821868D01*
X118541651Y-57802462D01*
X118534419Y-57782250D01*
X118529203Y-57761426D01*
X118526053Y-57740191D01*
X118525000Y-57718750D01*
X118525000Y-57281250D01*
X118526053Y-57259809D01*
X118529203Y-57238574D01*
X118534419Y-57217750D01*
X118541651Y-57197538D01*
X118550830Y-57178132D01*
X118561866Y-57159719D01*
X118574654Y-57142476D01*
X118589070Y-57126570D01*
X118604976Y-57112154D01*
X118622219Y-57099366D01*
X118640632Y-57088330D01*
X118660038Y-57079151D01*
X118680250Y-57071919D01*
X118701074Y-57066703D01*
X118722309Y-57063553D01*
X118743750Y-57062500D01*
X119256250Y-57062500D01*
X119277691Y-57063553D01*
X119277691Y-57063553D01*
G37*
D11*
X119000000Y-57500000D03*
D10*
G36*
X119277691Y-58638553D02*
G01*
X119298926Y-58641703D01*
X119319750Y-58646919D01*
X119339962Y-58654151D01*
X119359368Y-58663330D01*
X119377781Y-58674366D01*
X119395024Y-58687154D01*
X119410930Y-58701570D01*
X119425346Y-58717476D01*
X119438134Y-58734719D01*
X119449170Y-58753132D01*
X119458349Y-58772538D01*
X119465581Y-58792750D01*
X119470797Y-58813574D01*
X119473947Y-58834809D01*
X119475000Y-58856250D01*
X119475000Y-59293750D01*
X119473947Y-59315191D01*
X119470797Y-59336426D01*
X119465581Y-59357250D01*
X119458349Y-59377462D01*
X119449170Y-59396868D01*
X119438134Y-59415281D01*
X119425346Y-59432524D01*
X119410930Y-59448430D01*
X119395024Y-59462846D01*
X119377781Y-59475634D01*
X119359368Y-59486670D01*
X119339962Y-59495849D01*
X119319750Y-59503081D01*
X119298926Y-59508297D01*
X119277691Y-59511447D01*
X119256250Y-59512500D01*
X118743750Y-59512500D01*
X118722309Y-59511447D01*
X118701074Y-59508297D01*
X118680250Y-59503081D01*
X118660038Y-59495849D01*
X118640632Y-59486670D01*
X118622219Y-59475634D01*
X118604976Y-59462846D01*
X118589070Y-59448430D01*
X118574654Y-59432524D01*
X118561866Y-59415281D01*
X118550830Y-59396868D01*
X118541651Y-59377462D01*
X118534419Y-59357250D01*
X118529203Y-59336426D01*
X118526053Y-59315191D01*
X118525000Y-59293750D01*
X118525000Y-58856250D01*
X118526053Y-58834809D01*
X118529203Y-58813574D01*
X118534419Y-58792750D01*
X118541651Y-58772538D01*
X118550830Y-58753132D01*
X118561866Y-58734719D01*
X118574654Y-58717476D01*
X118589070Y-58701570D01*
X118604976Y-58687154D01*
X118622219Y-58674366D01*
X118640632Y-58663330D01*
X118660038Y-58654151D01*
X118680250Y-58646919D01*
X118701074Y-58641703D01*
X118722309Y-58638553D01*
X118743750Y-58637500D01*
X119256250Y-58637500D01*
X119277691Y-58638553D01*
X119277691Y-58638553D01*
G37*
D11*
X119000000Y-59075000D03*
M02*
